<?xml version="1.0" standalone="no"?>
<!DOCTYPE svg PUBLIC "-//W3C//DTD SVG 20010904//EN"
 "http://www.w3.org/TR/2001/REC-SVG-20010904/DTD/svg10.dtd">
<svg version="1.0" xmlns="http://www.w3.org/2000/svg"
 width="2160.000000pt" height="2160.000000pt" viewBox="0 0 2160.000000 2160.000000"
 preserveAspectRatio="xMidYMid meet">
<metadata>
Created by potrace 1.14, written by Peter Selinger 2001-2017
</metadata>
<g transform="translate(0.000000,2160.000000) scale(0.100000,-0.100000)"
fill="#000000" stroke="none">
<path d="M6160 19367 c-19 -5 -80 -13 -135 -17 -55 -4 -114 -12 -131 -18 -28
-9 -101 -51 -128 -73 -6 -5 -27 -19 -46 -32 -33 -21 -52 -32 -175 -96 -52 -27
-88 -58 -91 -77 -5 -35 -84 -170 -132 -224 -7 -8 -34 -44 -61 -80 -26 -36 -85
-100 -129 -142 -45 -43 -94 -97 -108 -120 -15 -23 -30 -46 -35 -52 -27 -33
-119 -168 -119 -175 0 -4 -9 -16 -21 -27 -11 -10 -43 -50 -71 -89 -29 -38 -69
-93 -90 -121 -21 -28 -38 -56 -38 -62 0 -5 -4 -12 -8 -14 -4 -1 -47 -55 -95
-118 -47 -63 -90 -119 -95 -125 -24 -30 -72 -105 -72 -112 0 -5 -10 -19 -22
-30 -13 -12 -39 -45 -58 -73 -53 -77 -107 -153 -123 -170 -7 -8 -44 -58 -82
-110 -39 -52 -75 -101 -82 -108 -7 -7 -20 -26 -30 -42 -9 -17 -21 -30 -25 -30
-4 0 -8 -6 -8 -13 0 -8 -11 -24 -25 -37 -14 -13 -25 -29 -25 -36 0 -7 -4 -14
-8 -16 -9 -4 -114 -144 -130 -175 -7 -12 -18 -27 -24 -35 -7 -7 -29 -36 -48
-63 -19 -28 -38 -54 -42 -60 -35 -44 -98 -137 -98 -143 0 -4 -11 -19 -25 -34
-14 -15 -25 -30 -25 -33 0 -3 -19 -33 -42 -66 -24 -33 -50 -70 -58 -82 -8 -12
-18 -23 -22 -25 -5 -2 -8 -8 -8 -12 0 -12 -62 -104 -72 -108 -4 -2 -8 -8 -8
-13 0 -8 -57 -97 -70 -109 -3 -3 -23 -33 -45 -67 -22 -35 -43 -63 -47 -63 -5
0 -8 -5 -8 -10 0 -8 -109 -175 -166 -255 -8 -11 -64 -94 -124 -185 -59 -91
-113 -170 -119 -177 -6 -7 -11 -14 -11 -17 0 -8 -64 -101 -72 -104 -5 -2 -8
-8 -8 -14 0 -16 -24 -35 -60 -46 -19 -6 -80 -25 -135 -43 -55 -17 -104 -35
-110 -40 -5 -5 -17 -9 -26 -9 -10 0 -30 -6 -46 -14 -38 -20 -147 -49 -298 -81
-44 -9 -102 -22 -130 -29 -27 -7 -102 -13 -165 -14 -98 -1 -121 -4 -159 -24
-41 -21 -141 -113 -141 -130 0 -4 -42 -8 -93 -8 -52 0 -97 -3 -100 -7 -10 -9
43 -30 98 -38 25 -4 45 -11 45 -16 0 -4 21 -11 48 -15 65 -9 92 -21 92 -39 0
-11 -12 -15 -51 -15 -59 0 -106 -24 -140 -71 -15 -22 -18 -33 -10 -43 6 -7 16
-36 22 -65 11 -52 12 -54 73 -81 122 -55 304 -75 437 -50 30 6 77 13 104 15
69 7 134 14 173 21 27 4 32 2 32 -15 0 -10 -3 -21 -7 -23 -19 -8 -150 -220
-212 -341 -37 -73 -82 -153 -99 -178 -18 -26 -32 -50 -32 -54 0 -4 -8 -19 -18
-33 -11 -15 -27 -51 -36 -81 -10 -30 -28 -68 -40 -85 -13 -17 -68 -110 -123
-206 -55 -96 -112 -194 -126 -217 -15 -24 -27 -47 -27 -52 0 -10 -74 -191 -91
-223 -5 -10 -9 -23 -9 -29 0 -6 -6 -25 -13 -42 -34 -79 -44 -115 -71 -245 -8
-40 -17 -76 -20 -81 -11 -18 -9 -148 2 -162 7 -8 18 -22 25 -31 21 -31 110
-38 461 -38 274 0 345 -3 361 -14 17 -12 26 -11 65 8 39 19 45 25 42 49 l-4
28 51 -7 c57 -7 89 2 164 49 28 17 50 39 53 53 3 13 13 24 21 24 8 0 28 10 45
21 23 16 35 19 51 12 31 -13 76 -7 98 13 19 17 28 32 65 104 24 46 33 55 85
82 24 12 50 29 57 38 14 17 101 143 117 168 6 10 12 19 15 22 3 3 11 17 19 32
8 15 31 46 52 70 45 51 73 125 64 168 -6 27 0 37 67 104 85 85 114 118 148
165 56 80 63 102 62 187 l-2 81 37 9 c27 6 39 16 43 33 6 26 20 37 62 46 16 3
27 9 26 13 -1 4 4 20 10 35 7 16 12 33 12 38 0 5 4 17 9 27 5 9 19 42 31 72
20 49 49 90 65 90 18 0 129 145 166 217 16 30 40 70 54 89 20 26 22 34 11 34
-24 0 -19 23 9 50 14 13 25 31 25 41 0 10 7 24 15 33 8 8 15 19 15 24 0 5 22
33 50 63 27 30 49 59 50 64 0 6 6 21 13 35 8 14 29 53 47 87 35 67 83 111 128
119 15 3 31 9 36 15 18 17 44 9 50 -16 8 -31 29 -32 69 -1 18 13 50 27 72 31
60 9 115 27 164 53 24 13 64 25 88 28 24 2 67 16 95 30 41 21 60 25 92 20 40
-6 67 5 251 97 10 5 34 12 51 14 28 4 35 0 49 -26 18 -35 20 -36 55 -16 14 8
39 14 56 15 16 0 34 4 40 10 5 5 27 12 49 16 22 3 45 9 50 12 10 7 68 25 135
42 19 5 60 16 90 25 102 31 175 47 250 55 73 8 151 28 166 43 11 11 90 8 117
-4 34 -15 35 -38 37 -459 1 -623 26 -1711 41 -1829 10 -83 13 -3545 3 -3805
-4 -89 -11 -166 -15 -172 -9 -11 -17 -245 -18 -536 -1 -138 -2 -147 -21 -153
-11 -3 -20 -11 -20 -17 0 -10 -172 -225 -224 -280 -14 -15 -26 -30 -26 -33 0
-4 -34 -46 -75 -95 -41 -49 -75 -92 -75 -96 0 -5 -9 -17 -20 -29 -20 -20 -182
-215 -223 -268 -12 -16 -30 -37 -39 -48 -10 -10 -18 -22 -18 -25 0 -3 -24 -33
-52 -68 -29 -34 -64 -77 -78 -95 -14 -19 -35 -44 -47 -56 -13 -12 -23 -25 -23
-29 0 -3 -39 -52 -86 -109 -100 -119 -104 -124 -126 -159 l-17 -26 37 10 c20
5 51 16 69 24 17 8 33 14 36 14 3 0 18 5 34 12 15 6 30 12 33 13 3 1 12 4 20
8 8 3 38 13 65 22 28 8 57 18 65 22 8 3 20 7 25 9 6 2 76 28 158 57 81 30 147
52 147 50 0 -3 6 0 14 6 14 12 116 46 129 43 4 -1 7 3 7 9 0 6 6 9 13 6 7 -3
21 1 32 9 10 8 26 14 34 14 9 0 29 7 44 15 16 8 59 24 95 35 37 11 76 24 87
29 20 10 116 45 125 47 3 0 19 6 35 13 17 7 52 20 79 28 27 8 59 21 70 28 12
8 68 33 126 55 58 23 111 47 118 52 6 6 12 8 12 5 0 -3 26 7 58 22 31 16 74
34 95 40 20 7 37 17 37 22 0 6 5 7 10 4 6 -4 24 5 41 19 17 14 35 26 40 26 8
0 48 39 93 91 55 64 119 360 114 529 -2 47 -3 354 -3 683 0 328 -3 597 -6 597
-14 0 -37 -37 -43 -69 -3 -19 -11 -40 -18 -48 -20 -25 -77 -42 -159 -49 l-79
-7 0 61 c0 34 5 72 11 86 9 18 9 42 2 88 -8 48 -8 66 2 78 23 28 28 74 31 315
2 212 6 277 20 375 6 40 6 149 0 168 -3 9 2 29 12 44 15 23 17 39 11 90 -8 70
-4 82 17 53 11 -15 14 -64 14 -245 -1 -124 2 -342 6 -485 4 -143 8 -293 8
-332 1 -40 4 -73 9 -73 4 0 7 10 8 23 0 12 2 144 4 292 8 622 17 1040 21 1044
16 16 23 -41 28 -239 4 -124 11 -259 15 -300 5 -41 8 -216 7 -387 -1 -172 2
-313 5 -313 6 0 14 92 25 255 1 22 4 102 5 178 2 104 6 137 16 137 10 0 13
-28 14 -117 0 -65 4 -138 8 -163 7 -40 8 -33 15 60 4 58 6 164 4 235 -3 123
-4 130 -24 133 -31 4 -41 38 -36 120 5 84 26 96 29 17 1 -27 6 -51 11 -54 5
-3 11 -13 14 -21 3 -8 6 218 7 503 2 450 0 518 -13 523 -11 4 -15 21 -14 62 1
32 6 60 10 63 13 8 21 67 12 87 -10 23 -4 66 10 74 11 6 11 67 0 140 -6 38 -6
38 24 32 27 -6 32 -3 38 20 3 14 4 33 1 41 -4 8 0 21 8 29 27 27 55 93 59 141
4 44 16 69 34 70 4 1 22 15 40 32 18 17 56 45 85 61 60 35 119 82 162 132 72
82 256 240 280 240 3 0 18 8 33 18 15 10 44 30 65 44 65 43 145 118 151 141 3
12 18 28 32 34 32 15 47 6 72 -43 9 -18 49 -79 87 -135 39 -56 78 -114 87
-128 9 -14 21 -30 25 -36 5 -5 19 -26 33 -45 42 -61 186 -253 236 -316 27 -33
60 -76 74 -94 14 -19 34 -44 45 -56 12 -12 32 -37 45 -54 14 -18 33 -42 43
-54 10 -11 28 -32 39 -46 275 -326 593 -657 878 -912 126 -113 144 -127 172
-133 15 -4 46 -24 68 -47 36 -34 86 -62 105 -59 3 1 19 -14 35 -33 45 -51 81
-62 133 -42 56 21 57 21 57 -13 0 -27 8 -33 123 -91 67 -35 133 -68 147 -76
81 -42 503 -182 660 -219 63 -15 160 -37 215 -50 117 -28 249 -56 285 -60 14
-2 41 -6 60 -9 41 -7 232 -36 275 -42 17 -2 46 -6 65 -9 123 -20 176 -25 268
-25 61 0 102 4 100 9 -3 9 -350 411 -388 449 -8 9 -15 19 -15 22 0 4 -15 19
-32 34 -18 15 -33 34 -33 41 0 7 -16 26 -35 42 -19 17 -35 35 -35 41 0 10 -65
72 -76 72 -4 0 -143 28 -169 35 -5 1 -17 5 -25 8 -8 3 -60 15 -115 27 -55 11
-104 22 -110 24 -5 1 -37 11 -70 21 -33 9 -64 20 -70 23 -5 4 -14 7 -20 8 -5
2 -86 28 -180 59 -124 41 -215 80 -335 142 -91 47 -169 89 -175 93 -5 4 -19
10 -29 14 -18 6 -19 5 -4 -11 34 -41 32 -43 -40 -43 -58 0 -73 4 -97 24 -15
13 -40 30 -54 37 -14 8 -55 41 -91 75 -72 68 -136 122 -202 171 -25 18 -62 55
-84 82 -21 28 -48 53 -58 57 -11 4 -50 38 -88 76 -66 67 -98 119 -98 159 0 10
-6 22 -14 26 -41 24 -75 133 -41 133 19 0 33 -16 101 -115 66 -98 70 -105 55
-114 -16 -10 77 -120 130 -156 22 -14 47 -41 56 -60 17 -35 33 -46 33 -22 0
25 -40 76 -119 152 -72 70 -97 105 -73 105 4 0 57 -48 117 -108 61 -59 146
-139 189 -177 44 -39 88 -78 98 -87 10 -10 25 -18 32 -18 8 0 27 -11 42 -25
28 -26 54 -33 54 -14 0 6 -60 71 -132 143 -73 73 -155 156 -182 184 -35 39
-53 51 -67 47 -10 -3 -28 -1 -39 5 -18 10 -21 17 -15 51 5 29 2 47 -9 64 -9
13 -16 31 -16 38 0 15 -66 107 -85 119 -6 4 -20 26 -30 50 -15 33 -121 169
-156 198 -10 9 -133 173 -204 273 -93 130 -122 171 -172 237 -22 30 -51 73
-63 95 -28 53 -44 79 -51 85 -3 3 -14 21 -24 40 -10 19 -32 56 -49 81 -17 26
-40 62 -51 80 -11 19 -31 52 -44 74 -32 53 -121 233 -121 244 0 5 -12 22 -27
38 -61 65 -63 51 34 184 48 67 133 183 188 259 55 75 114 154 130 175 35 43
237 288 269 325 118 138 591 865 584 898 -1 4 4 20 10 35 7 16 12 32 12 36 0
4 7 22 16 40 9 18 18 51 21 74 3 23 12 54 19 68 7 15 11 29 8 32 -4 3 2 27 12
54 31 80 24 239 -17 379 -5 17 -12 41 -14 54 -2 13 -9 37 -14 54 -6 17 -17 68
-25 114 -17 89 -28 117 -49 125 -7 3 -19 24 -26 48 -7 24 -26 71 -42 105 -16
33 -29 68 -29 78 0 9 -11 21 -25 26 -14 5 -25 16 -25 23 0 7 -10 23 -22 34
-13 11 -42 44 -66 72 -24 28 -49 51 -57 51 -7 0 -15 3 -17 8 -5 10 -53 39
-135 78 -167 80 -432 107 -684 70 -288 -43 -511 -118 -975 -327 -72 -32 -141
-59 -152 -59 -28 0 -298 -133 -497 -246 -33 -18 -64 -35 -69 -37 -5 -2 -11
-18 -12 -36 -2 -27 1 -31 14 -25 24 10 281 25 531 30 232 5 225 6 376 -61 17
-8 40 -17 53 -20 32 -9 91 -73 101 -109 12 -45 6 -118 -13 -156 -9 -18 -16
-46 -16 -62 0 -43 -16 -65 -60 -88 -41 -21 -52 -40 -25 -40 9 0 59 22 113 49
164 83 281 126 422 156 26 5 109 15 172 21 74 6 77 5 105 -23 54 -52 61 -121
27 -283 -23 -113 -275 -561 -433 -769 -61 -81 -320 -396 -386 -470 -16 -19
-34 -39 -40 -45 -5 -6 -44 -49 -85 -96 -91 -103 -76 -86 -186 -206 -50 -54
-113 -123 -140 -153 -27 -30 -63 -68 -79 -85 -32 -33 -67 -75 -100 -121 -11
-16 -27 -33 -35 -39 -8 -6 -60 -57 -116 -113 -94 -96 -124 -118 -124 -92 0 5
-20 -11 -45 -38 -25 -26 -45 -51 -45 -56 0 -4 -6 -7 -13 -5 -8 2 -29 -14 -49
-34 -19 -21 -42 -38 -49 -38 -8 -1 -25 -15 -39 -31 -14 -17 -35 -43 -47 -57
-13 -15 -23 -36 -23 -47 -1 -57 -9 -65 -71 -65 -48 0 -61 -4 -71 -20 -7 -11
-16 -20 -20 -20 -5 0 -8 9 -8 20 0 13 7 20 20 20 12 0 20 7 20 16 0 9 7 32 17
51 15 33 15 37 -5 79 -12 25 -22 62 -22 84 0 28 -4 40 -15 40 -15 0 -29 -17
-75 -92 -39 -63 -56 -62 -59 3 -1 28 -6 62 -12 75 -5 14 -9 55 -9 92 0 54 4
70 23 90 20 22 22 34 25 168 2 97 -1 156 -9 177 -14 38 -22 357 -9 372 5 6 12
59 16 118 5 75 11 107 19 107 7 0 16 -8 20 -17 6 -16 9 -15 30 10 13 15 28 27
32 27 11 0 33 -142 39 -245 2 -44 9 -110 14 -147 6 -37 10 -87 10 -112 0 -52
10 -57 46 -21 22 22 24 30 18 80 -4 35 -3 55 3 55 6 0 13 10 16 23 3 12 14 48
26 79 19 53 21 77 20 347 l0 291 42 55 c40 53 42 58 31 89 -15 42 -15 192 0
253 6 27 15 64 19 83 7 27 20 43 54 64 25 16 45 35 45 42 0 16 9 22 48 29 41
7 152 55 152 66 0 5 5 9 10 9 6 0 29 12 51 27 34 22 59 29 162 39 67 7 135 15
151 18 16 3 41 -1 57 -9 67 -35 173 -6 183 49 3 17 15 48 26 69 11 20 20 47
20 60 0 30 27 67 49 67 9 0 22 5 28 11 12 12 6 49 -8 49 -5 0 -9 7 -9 15 0 8
9 15 19 15 11 0 28 15 41 35 19 30 20 38 8 62 -13 28 -106 82 -142 83 -11 0
-27 6 -35 14 -29 25 -112 37 -252 37 -77 0 -145 -3 -150 -7 -6 -3 -83 -12
-172 -20 -89 -7 -191 -16 -226 -19 -100 -8 -99 -9 -95 93 12 277 20 368 44
467 5 22 12 78 15 124 3 47 9 89 13 95 7 11 22 790 24 1206 1 195 -14 478 -26
498 -3 5 -8 49 -12 98 -3 49 -10 97 -15 106 -5 9 -9 25 -9 34 0 26 -66 154
-98 191 -37 43 -90 56 -198 50 -49 -3 -106 -9 -128 -13 -57 -10 -111 12 -148
60 -68 89 -75 93 -178 105 -52 7 -110 17 -129 23 -44 14 -160 13 -174 -1 -16
-16 -66 -13 -84 4 -17 18 -101 18 -163 2z m-1105 -947 c3 -5 -1 -10 -9 -10 -9
0 -16 5 -16 10 0 6 4 10 9 10 6 0 13 -4 16 -10z m-55 -126 c0 -8 -4 -12 -10
-9 -5 3 -10 10 -10 16 0 5 5 9 10 9 6 0 10 -7 10 -16z m737 -31 c-6 -13 -15
-22 -21 -20 -18 6 -18 34 0 52 22 22 36 1 21 -32z m-87 -163 c0 -5 -4 -10 -10
-10 -5 0 -10 5 -10 10 0 6 5 10 10 10 6 0 10 -4 10 -10z m-538 -32 c-7 -7 -12
-8 -12 -2 0 14 12 26 19 19 2 -3 -1 -11 -7 -17z m1182 -30 c-21 -70 -42 -95
-70 -84 -13 5 -15 15 -11 42 7 40 30 63 65 64 20 0 22 -4 16 -22z m76 -1 c22
-17 19 -40 -8 -53 -13 -6 -23 -14 -22 -18 4 -17 -8 -29 -23 -23 -10 4 -17 17
-17 33 0 19 4 25 15 20 11 -4 15 2 15 24 0 32 14 38 40 17z m-936 -203 c10 -4
16 -18 16 -39 0 -18 6 -35 13 -38 23 -9 -7 -26 -36 -20 -38 7 -52 36 -37 74
13 30 18 33 44 23z m-614 -199 c0 -8 -6 -15 -14 -15 -17 0 -28 14 -19 24 12
12 33 6 33 -9z m480 -25 c0 -5 -4 -10 -10 -10 -5 0 -10 5 -10 10 0 6 5 10 10
10 6 0 10 -4 10 -10z m1128 -31 c4 -19 -27 -34 -41 -20 -14 14 0 43 20 39 10
-2 19 -10 21 -19z m-93 -51 c8 -8 8 -373 0 -413 -3 -16 -10 -54 -15 -83 -5
-29 -10 -185 -10 -345 -1 -160 -5 -350 -10 -422 -5 -71 -10 -156 -11 -188 -2
-66 -15 -88 -52 -92 -14 -2 -32 -7 -39 -11 -19 -12 -110 -43 -128 -44 -8 0
-28 -7 -44 -15 -15 -8 -37 -15 -48 -15 -11 0 -28 -5 -40 -11 -11 -6 -32 -13
-46 -15 -15 -3 -40 -9 -57 -14 -105 -30 -144 -40 -164 -40 -12 0 -31 -4 -41
-10 -10 -5 -36 -12 -57 -15 -21 -3 -49 -10 -63 -15 -14 -5 -52 -14 -85 -21
-33 -6 -78 -15 -100 -20 -22 -4 -65 -13 -95 -20 -30 -6 -63 -15 -72 -20 -10
-5 -31 -9 -47 -9 -16 0 -42 -5 -58 -11 -15 -7 -46 -15 -68 -20 -22 -4 -50 -10
-62 -14 -17 -5 -25 -3 -29 10 -5 13 8 32 49 72 32 30 57 61 57 68 0 7 4 15 8
17 14 5 67 90 87 138 22 54 47 88 110 155 26 28 64 70 84 95 40 51 122 130
133 130 5 0 8 9 8 19 0 11 4 22 9 25 4 3 11 18 14 33 5 24 25 52 105 148 10
11 32 44 51 72 18 29 46 64 62 77 16 13 40 48 54 78 42 88 75 138 124 187 25
25 62 66 81 91 19 25 37 47 40 50 4 3 30 37 59 75 29 39 58 77 64 85 7 8 35
47 62 85 27 39 54 75 60 81 5 6 17 22 25 34 37 55 52 70 70 67 11 -2 22 -6 25
-9z m-172 -33 c1 -5 -6 -11 -15 -13 -11 -2 -18 3 -18 13 0 17 30 18 33 0z
m-263 -120 c18 -21 3 -55 -25 -55 -24 0 -35 20 -27 53 5 21 35 22 52 2z m-160
-175 c0 -11 -7 -20 -15 -20 -15 0 -21 21 -8 33 12 13 23 7 23 -13z m678 -128
c2 -7 -3 -12 -12 -12 -9 0 -16 7 -16 16 0 17 22 14 28 -4z m467 -22 c-3 -5
-10 -10 -16 -10 -5 0 -9 5 -9 10 0 6 7 10 16 10 8 0 12 -4 9 -10z m2565 -51
c0 -5 -4 -9 -10 -9 -5 0 -10 7 -10 16 0 8 5 12 10 9 6 -3 10 -10 10 -16z
m-3980 -9 c0 -5 -7 -10 -15 -10 -8 0 -15 5 -15 10 0 6 7 10 15 10 8 0 15 -4
15 -10z m-766 -72 c9 -35 8 -38 -14 -38 -14 0 -20 7 -20 23 0 41 24 51 34 15z
m64 -1 c2 -10 -3 -17 -12 -17 -10 0 -16 9 -16 21 0 24 23 21 28 -4z m192 -62
c7 -8 10 -27 7 -41 -2 -14 0 -39 7 -56 10 -26 8 -31 -14 -48 -20 -15 -35 -18
-70 -14 -82 11 -108 62 -45 88 21 9 35 22 35 32 0 23 29 54 50 54 10 0 23 -7
30 -15z m410 -205 c0 -19 -11 -26 -23 -14 -8 8 3 34 14 34 5 0 9 -9 9 -20z
m-542 -37 c-5 -49 -57 -40 -58 10 0 12 8 17 31 17 27 0 30 -3 27 -27z m272
-38 c10 -12 9 -20 -4 -40 -9 -14 -18 -25 -21 -25 -7 0 -35 31 -35 40 0 11 29
40 39 40 5 0 14 -7 21 -15z m-129 -462 c0 -5 2 -19 4 -33 1 -14 -4 -36 -12
-48 -14 -23 -15 -23 -34 -6 -21 19 -25 64 -7 82 13 13 48 16 49 5z m-107 -56
c12 -20 -7 -39 -34 -34 -20 3 -26 37 -8 48 17 11 29 7 42 -14z m5436 -197 c0
-5 -4 -10 -10 -10 -5 0 -10 5 -10 10 0 6 5 10 10 10 6 0 10 -4 10 -10z m-229
-407 c17 -17 -17 -36 -51 -28 -32 7 -37 14 -19 32 13 13 56 10 70 -4z m-91
-39 c0 -17 -22 -14 -28 4 -2 7 3 12 12 12 9 0 16 -7 16 -16z m-2996 -512 c8
-13 -11 -35 -23 -28 -16 10 -14 36 3 36 8 0 17 -4 20 -8z m-3959 -22 c3 -5 -1
-10 -10 -10 -9 0 -13 5 -10 10 3 6 8 10 10 10 2 0 7 -4 10 -10z m4260 -40 c0
-14 -6 -26 -15 -27 -25 -5 -40 11 -33 35 8 33 48 26 48 -8z m-4930 -60 c3 -5
-1 -10 -10 -10 -9 0 -13 5 -10 10 3 6 8 10 10 10 2 0 7 -4 10 -10z m570 -30
c0 -22 -29 -18 -33 3 -3 14 1 18 15 15 10 -2 18 -10 18 -18z m-570 -90 c3 -6
-1 -13 -10 -16 -19 -8 -30 0 -20 15 8 14 22 14 30 1z m4601 -12 c-14 -70 -29
-167 -31 -203 -3 -54 -3 -55 -19 -55 -20 0 -27 54 -20 150 7 90 24 130 55 130
15 0 18 -5 15 -22z m-4051 -64 c0 -12 -8 -20 -22 -22 -25 -4 -31 16 -11 36 17
17 33 10 33 -14z m4395 -50 c0 -17 -22 -14 -28 4 -2 7 3 12 12 12 9 0 16 -7
16 -16z m-4405 -4 c3 -5 -1 -10 -9 -10 -9 0 -16 5 -16 10 0 6 4 10 9 10 6 0
13 -4 16 -10z m-280 -139 c3 -5 1 -12 -4 -15 -5 -3 -11 1 -15 9 -6 16 9 21 19
6z m865 -426 c0 -8 -9 -15 -20 -15 -20 0 -26 11 -13 23 12 13 33 7 33 -8z
m-434 -206 c3 -6 -1 -18 -10 -27 -15 -15 -17 -15 -32 0 -19 19 -11 38 16 38
10 0 22 -5 26 -11z m-775 -82 c-7 -7 -15 -6 -25 3 -22 17 -9 32 16 19 14 -8
17 -14 9 -22z m147 -56 c3 -8 -1 -12 -9 -9 -7 2 -15 10 -17 17 -3 8 1 12 9 9
7 -2 15 -10 17 -17z m342 -11 c0 -5 -4 -10 -10 -10 -5 0 -10 5 -10 10 0 6 5
10 10 10 6 0 10 -4 10 -10z m398 -68 c-1 -31 -7 -43 -33 -60 -62 -43 -70 -27
-24 47 39 62 59 67 57 13z m-870 -13 c-2 -6 -8 -10 -13 -10 -5 0 -11 4 -13 10
-2 6 4 11 13 11 9 0 15 -5 13 -11z m444 -4 c0 -5 -5 -11 -11 -13 -6 -2 -11 4
-11 13 0 9 5 15 11 13 6 -2 11 -8 11 -13z m-82 -5 c0 -5 -2 -10 -4 -10 -3 0
-8 5 -11 10 -3 6 -1 10 4 10 6 0 11 -4 11 -10z m-440 -15 c0 -8 -4 -15 -9 -15
-13 0 -22 16 -14 24 11 11 23 6 23 -9z m705 -45 c11 -17 -5 -32 -21 -19 -7 6
-11 15 -8 20 7 12 21 11 29 -1z m-615 -15 c0 -8 -4 -15 -10 -15 -5 0 -10 7
-10 15 0 8 5 15 10 15 6 0 10 -7 10 -15z m470 -20 c0 -8 -9 -15 -20 -15 -22 0
-27 15 -7 23 21 9 27 7 27 -8z m-480 -25 c0 -5 -2 -10 -4 -10 -3 0 -8 5 -11
10 -3 6 -1 10 4 10 6 0 11 -4 11 -10z m755 -37 c0 -42 -3 -48 -22 -51 -13 -2
-23 1 -23 7 0 6 -13 11 -30 11 -20 0 -30 -5 -30 -15 0 -8 -7 -15 -15 -15 -8 0
-15 7 -15 15 0 8 7 15 15 15 8 0 15 6 15 14 0 9 12 16 28 18 16 2 31 12 37 26
5 12 17 22 25 22 12 0 16 -11 15 -47z m-278 0 c4 -11 -54 -29 -64 -19 -3 3 -3
12 1 21 7 19 57 17 63 -2z m3773 -59 c0 -18 -20 -28 -32 -16 -6 6 -8 23 -3 39
6 27 7 27 21 9 8 -11 14 -25 14 -32z m-4276 15 c-3 -5 -10 -7 -15 -3 -5 3 -7
10 -3 15 3 5 10 7 15 3 5 -3 7 -10 3 -15z m656 -33 c0 -16 -14 -36 -26 -36
-14 0 -19 22 -7 33 7 8 33 10 33 3z m-32 -63 c-5 -25 -28 -28 -28 -4 0 12 6
21 16 21 9 0 14 -7 12 -17z m-58 -88 c0 -22 -32 -55 -52 -55 -22 0 -23 13 -2
45 18 27 54 34 54 10z m-527 -39 c12 -31 -27 -36 -43 -6 -9 17 -8 20 14 20 13
0 26 -6 29 -14z m451 -353 c-2 -30 -73 -143 -90 -143 -21 0 -17 27 11 68 14
20 25 46 25 57 0 12 6 27 12 33 19 19 43 10 42 -15z m4444 -605 c-2 -13 -11
-24 -21 -26 -22 -4 -35 27 -16 39 25 16 41 10 37 -13z m2517 -154 c68 -76 93
-102 152 -151 40 -33 103 -118 103 -139 0 -18 -35 8 -85 62 -33 37 -84 89
-113 117 -81 78 -142 167 -114 167 4 0 30 -25 57 -56z m-2410 -14 c3 -5 1 -10
-4 -10 -6 0 -11 5 -11 10 0 6 2 10 4 10 3 0 8 -4 11 -10z m2363 -209 c3 -8 -1
-12 -9 -9 -7 2 -15 10 -17 17 -3 8 1 12 9 9 7 -2 15 -10 17 -17z m-2417 -13
c6 -67 4 -199 -3 -223 -4 -16 -10 -85 -14 -155 -3 -69 -7 -138 -9 -155 -2 -16
-7 -83 -10 -150 -7 -125 -9 -135 -27 -135 -10 0 -6 247 7 425 2 28 4 130 6
228 l2 177 23 0 c13 0 24 -6 25 -12z m-165 -129 c2 -123 5 -159 14 -159 6 0
10 33 10 80 0 65 3 80 15 80 13 0 15 -14 9 -97 -4 -54 -6 -156 -5 -228 2 -209
2 -215 -2 -338 -2 -72 -8 -122 -15 -129 -15 -15 -22 -7 -27 28 -2 16 -4 31 -4
34 -1 3 -5 0 -9 -7 -4 -7 -5 -45 -1 -85 4 -40 5 -77 3 -83 -7 -22 -14 -85 -19
-175 -3 -52 -8 -120 -11 -150 -4 -30 -7 -63 -7 -72 -1 -10 -7 -18 -14 -18 -13
0 -14 21 -17 615 -2 247 9 487 24 539 18 60 20 76 21 136 1 30 3 59 6 63 11
18 28 -2 29 -34z m231 -529 c-1 -91 -13 -112 -29 -54 -9 29 -4 116 7 134 16
26 22 2 22 -80z m-7 -782 c0 -7 -3 -23 -6 -36 -7 -26 -30 -25 -28 1 1 10 2 24
3 32 1 18 31 20 31 3z m-640 -301 c0 -19 -10 -27 -26 -20 -21 8 -17 33 6 33
11 0 20 -6 20 -13z m190 -87 c0 -5 -5 -10 -11 -10 -5 0 -7 5 -4 10 3 6 8 10
11 10 2 0 4 -4 4 -10z m105 -1 c4 -5 4 -21 1 -34 -5 -18 -12 -24 -26 -22 -28
4 -33 13 -26 42 7 26 39 35 51 14z m-479 -2278 c-8 -13 -36 -15 -36 -3 0 4 5
13 12 20 14 14 34 0 24 -17z m-386 -361 c0 -5 7 -10 15 -10 9 0 12 -6 9 -15
-8 -19 -28 -19 -48 1 -22 21 -20 34 4 34 11 0 20 -4 20 -10z"/>
<path d="M13774 18884 c-5 -1 -45 -10 -89 -20 -44 -9 -91 -23 -105 -30 -58
-29 -120 -125 -127 -202 -4 -38 -12 -57 -26 -67 -17 -12 -20 -24 -18 -78 2
-43 -3 -77 -15 -103 -15 -36 -18 -77 -9 -149 26 -213 26 -1232 0 -1455 -2 -19
-6 -73 -9 -120 -9 -129 -16 -231 -21 -270 -2 -19 -7 -80 -10 -135 -4 -55 -8
-118 -10 -140 -6 -74 -16 -199 -20 -265 -17 -232 -32 -374 -51 -480 -8 -47
-17 -98 -19 -115 -6 -46 -61 -281 -111 -475 -25 -96 -47 -183 -49 -192 -25
-115 -159 -516 -191 -573 -12 -23 -34 -80 -48 -129 -31 -109 -61 -175 -120
-266 -25 -39 -46 -79 -46 -89 0 -10 -24 -67 -54 -128 -38 -77 -67 -121 -97
-149 -23 -21 -59 -55 -78 -75 -35 -36 -89 -60 -162 -74 -34 -6 -38 -4 -60 32
-13 21 -39 58 -58 83 -18 25 -39 58 -46 73 -6 16 -22 34 -35 40 -13 7 -28 26
-32 42 -42 144 -49 177 -53 252 -3 66 -16 115 -47 177 -19 37 -19 40 -3 70 16
29 16 36 1 84 -8 29 -13 66 -10 82 4 15 1 43 -4 62 -6 18 -14 74 -18 123 -3
50 -11 115 -16 145 -6 30 -12 138 -14 240 -2 102 -6 217 -9 255 -2 39 -7 142
-9 230 -4 130 -8 161 -20 171 -20 14 -20 28 -2 43 11 9 13 49 9 209 -4 190
-10 228 -40 260 -12 13 -7 42 7 42 10 0 17 47 30 210 7 74 17 144 23 155 6 11
12 47 13 80 7 166 15 242 27 289 8 28 13 79 12 114 -3 77 8 138 34 194 30 67
43 128 37 172 -4 25 0 60 10 91 40 126 31 241 -25 316 -59 81 -191 164 -291
183 -19 4 -51 13 -70 21 -19 8 -54 19 -78 25 -24 6 -46 18 -49 26 -4 11 -17
15 -45 12 -33 -2 -45 3 -75 32 -34 34 -38 35 -107 33 -59 -2 -78 2 -111 21
-43 25 -140 58 -148 49 -3 -2 -24 8 -48 22 -37 24 -48 26 -98 21 -31 -4 -68
-8 -84 -9 -21 -2 -35 -14 -62 -57 -19 -30 -38 -62 -41 -70 -4 -8 -26 -45 -49
-81 -51 -79 -95 -247 -89 -339 4 -78 4 -67 -2 -580 -6 -470 -2 -538 31 -655 9
-33 17 -70 17 -83 0 -20 4 -22 29 -17 18 4 41 1 60 -9 24 -12 36 -13 51 -5 12
6 48 9 81 7 68 -5 97 -29 97 -79 0 -16 3 -29 8 -29 4 0 53 38 109 85 57 47
109 85 117 85 8 0 38 16 67 35 59 39 118 46 156 20 17 -12 30 -13 75 -3 47 10
64 9 109 -5 30 -10 59 -21 65 -25 17 -11 44 -68 44 -95 0 -12 4 -27 9 -32 5
-6 17 -46 26 -90 10 -44 22 -88 27 -97 5 -10 11 -48 13 -85 3 -37 12 -103 21
-146 13 -67 14 -90 3 -146 -10 -58 -18 -72 -59 -114 -47 -47 -62 -74 -74 -130
-4 -15 -19 -35 -35 -45 -15 -9 -63 -55 -107 -102 -96 -103 -138 -144 -184
-178 -19 -15 -44 -36 -56 -47 -12 -11 -36 -31 -55 -45 -18 -14 -41 -32 -50
-41 -9 -9 -30 -25 -48 -35 -17 -10 -31 -22 -31 -26 0 -4 -27 -28 -60 -53 -33
-25 -60 -52 -60 -58 0 -11 -30 -28 -81 -46 -20 -7 -73 -47 -110 -83 -16 -14
-37 -29 -48 -33 -12 -3 -21 -10 -21 -15 0 -5 -8 -11 -18 -15 -19 -5 -46 -51
-38 -63 2 -4 7 -32 10 -62 10 -84 36 -244 58 -355 11 -55 22 -111 24 -125 17
-90 73 -312 103 -410 11 -36 28 -95 39 -131 33 -112 31 -110 99 -86 46 17 89
22 209 25 149 4 153 3 210 -24 34 -16 80 -29 107 -30 27 -2 70 -10 96 -19 63
-21 100 -52 287 -245 13 -14 24 -31 24 -37 0 -7 11 -20 24 -28 14 -9 46 -49
72 -88 105 -158 117 -176 148 -209 29 -30 37 -54 65 -172 18 -76 30 -148 27
-161 -3 -13 1 -44 9 -67 24 -69 19 -108 -29 -263 -9 -27 -16 -54 -16 -58 0
-15 118 3 255 38 135 35 269 86 327 125 33 23 142 132 180 179 10 14 27 29 37
35 11 6 42 24 71 40 34 20 60 45 77 74 14 24 53 66 87 94 123 102 174 174 256
358 6 14 16 34 23 45 225 368 298 500 325 592 17 54 33 112 37 128 7 34 51
145 90 232 15 32 31 67 35 78 5 11 14 48 20 81 6 34 38 144 71 245 34 101 83
270 109 374 42 170 46 192 33 207 -16 18 -11 48 7 48 6 0 9 4 5 9 -3 6 1 13 9
18 7 4 19 32 25 61 14 69 14 70 -6 68 -26 -2 -22 23 6 37 18 9 27 26 38 72 7
33 25 105 38 160 14 55 25 114 25 130 0 17 7 41 17 54 21 30 41 129 37 178 -2
21 1 54 5 73 5 19 12 53 15 75 3 22 8 51 11 65 2 14 7 36 10 50 2 14 7 68 10
120 5 96 12 174 20 220 2 14 7 52 11 85 3 33 8 69 11 80 2 11 6 40 8 65 3 25
10 75 16 112 19 116 20 136 25 538 7 485 8 520 23 547 9 17 8 30 -4 61 -15 36
-15 47 5 143 17 87 19 108 8 129 -26 51 -42 51 -65 3 -24 -49 -37 -51 -57 -5
-17 38 -17 39 11 96 22 45 25 59 15 65 -11 7 -11 15 2 45 13 30 14 47 5 84
-13 59 -4 95 37 158 38 57 42 88 17 124 -19 28 -129 135 -196 193 -39 33 -45
43 -49 87 -8 85 -69 125 -82 54 -5 -22 -12 -33 -19 -30 -7 3 -20 9 -29 12 -20
7 -25 53 -8 70 7 7 -2 15 -29 24 -34 11 -54 11 -125 -2 -10 -2 -23 6 -30 17
-6 11 -15 23 -20 26 -19 14 -174 39 -202 33z m451 -262 c0 -18 -20 -15 -23 4
-3 10 1 15 10 12 7 -3 13 -10 13 -16z m-40 -161 c3 -5 1 -12 -5 -16 -5 -3 -10
1 -10 9 0 18 6 21 15 7z m41 -286 c20 -19 9 -55 -17 -55 -15 0 -19 7 -19 35 0
37 12 44 36 20z m242 -109 c-2 -23 -8 -31 -23 -31 -23 0 -33 38 -15 60 19 23
41 6 38 -29z m-568 -70 c0 -8 -4 -17 -9 -21 -12 -7 -24 12 -16 25 9 15 25 12
25 -4z m497 -27 c16 -16 5 -39 -18 -39 -14 0 -19 7 -19 25 0 26 18 33 37 14z
m-607 -130 c0 -5 -4 -9 -10 -9 -5 0 -10 7 -10 16 0 8 5 12 10 9 6 -3 10 -10
10 -16z m685 -187 c6 -4 11 -18 10 -32 0 -32 -30 -38 -45 -10 -19 36 4 64 35
42z m-401 -45 c-5 -13 -10 -15 -27 -6 -20 11 -20 12 -2 25 22 16 39 5 29 -19z
m294 -36 c3 -15 -3 -30 -14 -38 -15 -11 -21 -10 -41 9 -22 20 -22 22 -6 40 23
26 57 19 61 -11z m-730 -39 c2 -7 -6 -12 -17 -12 -21 0 -27 11 -14 24 9 9 26
2 31 -12z m207 -2 c3 -5 1 -10 -4 -10 -6 0 -11 5 -11 10 0 6 2 10 4 10 3 0 8
-4 11 -10z m172 -56 c-3 -3 -12 -4 -19 -1 -8 3 -5 6 6 6 11 1 17 -2 13 -5z
m257 -48 c7 -27 -1 -57 -18 -68 -7 -5 -7 -8 2 -8 6 0 12 -11 12 -24 0 -31 -16
-36 -56 -20 -23 10 -34 10 -42 2 -8 -8 -13 -7 -18 6 -4 10 -2 21 3 25 6 3 14
22 18 41 10 46 32 70 65 70 21 0 29 -6 34 -24z m-646 -20 c15 -34 -14 -61 -57
-51 -42 9 -56 28 -39 54 19 31 81 29 96 -3z m322 -100 c0 -3 -4 -8 -10 -11 -5
-3 -10 -1 -10 4 0 6 5 11 10 11 6 0 10 -2 10 -4z m205 -37 c0 -8 -10 -15 -23
-17 -21 -3 -22 -1 -12 18 12 23 35 22 35 -1z m-2650 -358 c3 -5 1 -12 -5 -16
-5 -3 -10 1 -10 9 0 18 6 21 15 7z m-575 -31 c21 -11 17 -45 -6 -54 -36 -14
-68 29 -38 51 21 16 21 16 44 3z m164 -119 c11 -17 -5 -39 -25 -34 -21 6 -21
6 -13 27 7 17 29 21 38 7z m-259 -101 c-3 -5 -10 -10 -16 -10 -5 0 -9 5 -9 10
0 6 7 10 16 10 8 0 12 -4 9 -10z m103 -53 c2 -12 -3 -17 -17 -17 -12 0 -21 6
-21 13 0 31 32 34 38 4z m722 8 c6 -8 8 -20 4 -26 -4 -7 -3 -9 3 -6 14 9 34
-15 25 -29 -4 -6 -22 -19 -41 -28 -33 -18 -33 -18 -62 12 -27 27 -30 54 -4 32
7 -6 20 -7 29 -4 13 5 14 9 5 20 -9 11 -8 18 1 29 16 19 24 19 40 0z m-500
-25 c0 -5 -4 -10 -10 -10 -5 0 -10 5 -10 10 0 6 5 10 10 10 6 0 10 -4 10 -10z
m-312 -51 c-2 -6 -8 -10 -13 -10 -5 0 -11 4 -13 10 -2 6 4 11 13 11 9 0 15 -5
13 -11z m122 -10 c0 -8 5 -8 15 1 12 10 18 10 30 0 22 -18 18 -35 -9 -48 -21
-9 -27 -8 -40 13 -18 28 -21 45 -6 45 6 0 10 -5 10 -11z m-315 -29 c3 -5 12
-7 20 -3 9 3 15 -1 15 -11 0 -12 -10 -16 -39 -16 -40 0 -57 11 -46 30 8 13 42
13 50 0z m972 -5 c38 -11 41 -84 4 -112 -21 -16 -63 -16 -85 0 -16 11 -18 22
-12 60 4 28 14 51 24 56 16 10 23 10 69 -4z m-859 -7 c-7 -19 -38 -22 -38 -4
0 10 9 16 21 16 12 0 19 -5 17 -12z m542 -22 c0 -16 -18 -31 -27 -22 -8 8 5
36 17 36 5 0 10 -6 10 -14z m-600 -14 c0 -22 -28 -45 -46 -38 -18 7 -17 8 6
26 27 21 40 25 40 12z m470 -22 c0 -21 -15 -27 -25 -10 -7 12 2 30 16 30 5 0
9 -9 9 -20z m-296 1 c10 -16 -5 -41 -24 -41 -10 0 -20 6 -23 14 -10 25 33 50
47 27z m110 -66 c-4 -8 -13 -15 -21 -15 -13 0 -13 3 -3 15 7 8 16 15 21 15 5
0 6 -7 3 -15z m183 -27 c-3 -8 -6 -5 -6 6 -1 11 2 17 5 13 3 -3 4 -12 1 -19z
m640 -764 c2 -6 -5 -14 -17 -17 -15 -4 -20 0 -20 15 0 21 30 23 37 2z m2151
-173 c3 -8 -1 -12 -9 -9 -7 2 -15 10 -17 17 -3 8 1 12 9 9 7 -2 15 -10 17 -17z
m90 -83 c19 -19 14 -28 -13 -28 -24 0 -34 18 -18 33 9 10 17 9 31 -5z m150
-33 c9 -19 8 -27 -4 -40 -36 -36 -90 -5 -77 43 8 33 66 31 81 -3z m-618 -90
c0 -8 -7 -15 -15 -15 -8 0 -15 7 -15 15 0 8 7 15 15 15 8 0 15 -7 15 -15z
m610 -3 c0 -13 -12 -22 -22 -16 -10 6 -1 24 13 24 5 0 9 -4 9 -8z m-104 -37
c-3 -9 -11 -13 -16 -10 -8 5 -7 11 1 21 14 18 24 11 15 -11z m121 -16 c-1 -20
-30 -35 -47 -24 -16 10 -12 33 7 43 23 13 42 4 40 -19z m-437 1 c0 -5 -9 -10
-20 -10 -11 0 -20 5 -20 10 0 6 9 10 20 10 11 0 20 -4 20 -10z m85 -10 c3 -5
1 -10 -4 -10 -6 0 -11 5 -11 10 0 6 2 10 4 10 3 0 8 -4 11 -10z m-335 -116 c0
-10 -7 -14 -22 -12 -32 5 -35 28 -4 28 17 0 26 -5 26 -16z m385 -74 c3 -5 -1
-10 -10 -10 -9 0 -13 5 -10 10 3 6 8 10 10 10 2 0 7 -4 10 -10z m45 -20 c0 -5
-4 -10 -10 -10 -5 0 -10 5 -10 10 0 6 5 10 10 10 6 0 10 -4 10 -10z m278 -36
c4 -27 -24 -39 -45 -19 -20 21 -9 47 19 43 14 -2 24 -11 26 -24z m-728 -184
c0 -11 -4 -20 -9 -20 -11 0 -22 26 -14 34 12 12 23 5 23 -14z m-2110 -5 c0 -9
-6 -12 -15 -9 -8 4 -12 10 -9 15 8 14 24 10 24 -6z m2394 -1 c20 -8 21 -40 2
-47 -21 -8 -50 17 -43 37 7 17 16 20 41 10z m-294 -34 c0 -15 -19 -22 -40 -15
-22 7 -27 31 -7 38 15 5 47 -10 47 -23z m550 22 c0 -13 -12 -22 -22 -16 -10 6
-1 24 13 24 5 0 9 -4 9 -8z m10 -56 c0 -3 -4 -8 -10 -11 -5 -3 -10 -1 -10 4 0
6 5 11 10 11 6 0 10 -2 10 -4z m-523 -87 c2 -23 -23 -37 -39 -21 -15 15 -2 42
20 42 11 0 18 -8 19 -21z m-79 -6 c-2 -10 -10 -18 -18 -18 -8 0 -16 8 -18 18
-2 12 3 17 18 17 15 0 20 -5 18 -17z m252 -20 c-1 -5 -7 -30 -14 -58 -10 -38
-18 -51 -35 -53 -18 -3 -21 1 -21 31 0 22 8 45 23 61 21 24 48 35 47 19z
m-124 -44 c-3 -17 -6 -38 -6 -46 0 -11 -5 -11 -30 2 l-31 16 28 29 c36 38 47
38 39 -1z m219 -39 c0 -18 -6 -26 -22 -28 -18 -3 -23 1 -23 21 0 28 9 39 30
35 9 -2 15 -14 15 -28z"/>
<path d="M17219 18626 c-2 -2 -102 -6 -222 -10 -121 -3 -222 -8 -226 -10 -4
-3 -41 -7 -82 -11 -41 -3 -85 -7 -99 -9 -14 -2 -47 -7 -73 -11 -70 -9 -185
-34 -252 -54 -16 -5 -57 -15 -90 -21 -77 -15 -589 -143 -675 -169 -119 -36
-344 -118 -465 -170 -66 -29 -135 -54 -155 -57 -44 -6 -90 -24 -90 -34 0 -8
-46 -26 -127 -50 -57 -17 -63 -50 -15 -82 65 -42 74 -122 32 -279 -9 -32 -9
-53 0 -83 6 -23 8 -55 5 -71 -4 -17 -8 -55 -10 -85 -2 -30 -8 -73 -13 -95 -5
-25 -5 -51 0 -65 12 -32 -8 -829 -21 -861 -10 -23 -39 -266 -46 -381 -2 -31
-8 -65 -14 -76 -6 -12 -11 -66 -11 -122 0 -56 -5 -110 -10 -120 -12 -23 -28
-137 -34 -240 -5 -85 -23 -165 -43 -195 -7 -11 -13 -35 -13 -55 0 -19 -9 -66
-20 -105 -10 -38 -28 -102 -39 -141 -11 -40 -29 -127 -41 -195 -12 -68 -30
-158 -41 -199 -11 -41 -22 -88 -25 -104 -3 -16 -8 -34 -11 -40 -4 -5 -10 -26
-14 -45 -23 -112 -75 -294 -90 -316 -8 -12 -17 -67 -24 -155 -3 -36 -8 -83
-10 -105 -2 -22 -6 -69 -10 -105 -3 -36 -10 -108 -15 -160 -6 -52 -12 -126
-16 -165 -3 -38 -7 -86 -10 -105 -14 -120 -24 -264 -25 -390 -1 -133 -22 -329
-47 -440 -18 -81 -29 -216 -36 -465 -1 -44 -8 -91 -15 -105 -8 -14 -43 -54
-80 -90 -79 -78 -108 -114 -127 -157 -8 -18 -20 -33 -27 -33 -11 0 -107 -130
-107 -146 0 -4 -6 -15 -13 -23 -38 -45 -170 -401 -169 -453 1 -39 35 -107 73
-149 29 -31 41 -36 80 -37 45 -1 46 -1 67 48 21 48 23 50 63 50 38 0 41 -2 35
-24 -9 -37 15 -50 78 -42 l53 6 15 -39 c12 -29 26 -43 62 -60 77 -38 119 -100
260 -388 13 -27 53 -43 89 -36 24 5 27 10 28 47 1 22 1 44 0 49 -1 10 17 9 39
-3 40 -22 137 35 170 100 11 22 29 48 41 59 22 21 32 105 32 269 0 45 3 82 6
82 29 -1 57 -62 66 -145 9 -91 25 -165 35 -165 24 0 38 56 39 158 1 65 3 72
21 72 13 0 20 -7 20 -19 0 -11 5 -23 10 -26 6 -3 10 -24 10 -46 0 -31 4 -39
18 -39 25 1 45 19 76 73 20 34 34 47 50 47 64 0 144 199 182 450 24 164 42
178 50 38 4 -61 10 -90 25 -110 10 -15 19 -32 19 -38 0 -23 27 -7 50 31 14 22
60 75 104 117 43 42 88 87 99 100 11 12 32 22 47 22 41 0 93 60 61 72 -13 5
-24 48 -12 48 13 0 164 149 248 246 34 38 89 90 122 114 43 32 61 51 61 67 0
20 41 73 58 73 12 1 78 64 90 87 10 19 9 23 -8 28 -11 3 -20 9 -20 13 0 4 30
30 68 59 69 52 98 82 212 213 36 41 105 114 153 162 58 59 90 98 94 118 6 33
42 67 80 76 12 4 23 10 23 14 0 5 9 12 20 15 28 9 25 25 -4 25 -42 0 -38 26
12 66 71 57 140 134 163 183 28 61 67 109 99 126 15 8 73 59 129 115 90 89
131 117 131 92 0 -5 -38 -48 -85 -96 -46 -49 -87 -98 -91 -110 -3 -11 -34 -48
-68 -82 -98 -98 -136 -147 -136 -178 0 -25 182 166 233 245 21 33 43 59 50 59
17 0 57 42 57 59 0 7 13 30 29 50 15 20 40 54 54 77 14 22 39 54 56 70 17 16
31 39 31 51 0 25 32 63 53 63 15 0 67 47 67 60 0 6 -9 5 -20 -2 -10 -7 -22 -9
-26 -6 -12 13 57 98 117 144 63 48 107 101 129 154 7 16 18 30 25 30 6 0 20 9
30 20 16 18 16 20 1 26 -23 9 -20 21 12 52 15 15 45 53 66 85 21 31 51 66 66
77 29 21 143 182 200 285 19 33 59 98 89 145 31 47 70 114 87 150 17 36 49 94
71 130 225 365 385 694 471 970 11 36 35 101 52 145 34 83 85 272 94 347 3 24
8 52 10 63 5 27 15 108 21 170 11 108 5 346 -10 441 -15 98 -84 331 -152 514
-19 52 -39 106 -44 120 -5 14 -23 41 -39 60 -46 54 -47 55 -60 80 -7 14 -18
30 -24 37 -25 28 -34 40 -46 63 -7 13 -17 29 -21 34 -5 6 -18 23 -30 39 -11
15 -27 27 -35 27 -7 0 -34 20 -59 45 -74 72 -107 93 -365 228 -137 71 -291
137 -356 153 -16 4 -35 11 -41 17 -7 5 -13 7 -13 4 0 -3 -16 -1 -36 5 -122 33
-258 54 -424 64 -58 3 -108 8 -111 10 -3 2 -8 2 -10 0z m309 -1226 c44 -10 59
-19 94 -61 22 -27 56 -54 75 -61 27 -10 36 -20 45 -53 6 -22 20 -49 30 -61 10
-11 18 -25 18 -31 0 -6 8 -21 19 -34 27 -35 42 -205 25 -281 -3 -13 -7 -57 -9
-98 -1 -41 -8 -88 -15 -105 -6 -16 -14 -38 -16 -47 -2 -10 -6 -27 -9 -38 -3
-11 -7 -29 -10 -40 -3 -11 -7 -28 -9 -37 -86 -353 -118 -479 -132 -510 -10
-21 -18 -40 -18 -43 -1 -3 -14 -31 -29 -64 -15 -32 -27 -60 -27 -63 0 -2 -45
-95 -99 -206 -81 -163 -115 -222 -182 -307 -45 -57 -136 -183 -202 -280 -97
-140 -259 -364 -308 -424 -5 -6 -59 -74 -121 -151 -100 -125 -304 -372 -318
-385 -14 -13 -120 -139 -120 -142 0 -3 -21 -27 -47 -54 -27 -28 -70 -76 -98
-108 -27 -33 -59 -69 -70 -81 -40 -45 -143 -161 -166 -186 -13 -14 -51 -56
-84 -93 -33 -38 -69 -78 -80 -91 -161 -179 -150 -163 -131 -184 19 -21 21 -52
4 -69 -14 -14 -68 -16 -68 -2 0 24 -25 3 -105 -90 -48 -55 -92 -100 -97 -100
-20 0 -1 85 36 161 34 69 37 85 44 190 3 63 6 139 5 169 0 30 -1 90 -2 133 -1
48 4 90 13 110 44 100 44 103 51 322 2 88 7 176 9 195 32 238 37 317 38 526 0
127 5 257 9 290 5 32 12 74 14 93 3 18 7 36 9 40 5 8 13 79 22 206 3 50 7 97
9 105 1 8 6 38 9 65 9 59 11 75 27 180 6 44 13 89 14 100 8 58 16 112 20 125
2 8 11 74 20 145 25 202 25 207 35 265 12 66 20 145 24 221 2 31 6 60 9 66 3
5 -4 10 -15 10 -23 2 -40 22 -31 36 3 4 19 7 36 5 30 -3 31 -2 35 42 1 25 16
101 33 170 43 180 67 215 201 291 48 27 90 49 92 49 2 0 42 17 88 39 73 34
185 79 213 86 6 1 17 5 25 8 134 54 475 131 635 143 50 4 92 9 95 11 9 10 385
-5 438 -17z m-2420 -257 c-2 -10 -10 -18 -18 -18 -8 0 -16 8 -18 18 -2 12 3
17 18 17 15 0 20 -5 18 -17z m245 -299 c5 -27 -12 -40 -38 -30 -18 7 -20 53
-2 59 21 7 35 -3 40 -29z m87 -539 c0 -8 -4 -15 -9 -15 -13 0 -22 16 -14 24
11 11 23 6 23 -9z m-20 -251 c0 -19 -5 -24 -24 -24 -29 0 -42 35 -18 49 23 13
42 2 42 -25z m-742 -646 c-6 -18 -28 -21 -28 -4 0 9 7 16 16 16 9 0 14 -5 12
-12z m-48 -718 c0 -5 -4 -10 -9 -10 -6 0 -13 5 -16 10 -3 6 1 10 9 10 9 0 16
-4 16 -10z m1550 -1009 c14 -28 13 -41 -6 -41 -23 0 -45 26 -38 44 8 22 31 20
44 -3z m-1092 -44 c2 -15 -1 -27 -5 -27 -15 0 -33 23 -33 43 0 30 34 16 38
-16z m1670 6 c4 -25 -26 -72 -45 -73 -13 0 -43 27 -43 39 0 5 10 20 21 35 26
33 62 32 67 -1z m-706 -288 c0 -5 -5 -11 -11 -13 -6 -2 -11 4 -11 13 0 9 5 15
11 13 6 -2 11 -8 11 -13z m186 -117 c-3 -24 -34 -36 -49 -21 -16 16 2 43 28
43 20 0 24 -4 21 -22z m362 7 c0 -8 -7 -15 -15 -15 -8 0 -15 7 -15 15 0 8 7
15 15 15 8 0 15 -7 15 -15z m-565 -35 c3 -6 4 -19 0 -30 -7 -23 -35 -16 -35 9
0 29 22 42 35 21z m635 -39 c0 -24 -23 -43 -44 -35 -21 8 -20 30 2 43 26 16
42 13 42 -8z m-950 -187 c0 -9 -7 -14 -17 -12 -25 5 -28 28 -4 28 12 0 21 -6
21 -16z m590 -40 c0 -9 -5 -14 -12 -12 -18 6 -21 28 -4 28 9 0 16 -7 16 -16z
m270 -30 c0 -33 -33 -30 -38 4 -3 17 2 22 17 22 16 0 21 -6 21 -26z m-404 -15
c9 -16 -21 -43 -40 -36 -9 4 -16 16 -16 27 0 15 7 20 24 20 14 0 28 -5 32 -11z
m-401 -38 c0 -33 -49 -70 -73 -55 -9 6 -18 21 -20 33 -5 34 16 52 57 49 30 -3
36 -7 36 -27z m146 -81 c26 -14 24 -28 -6 -42 -33 -15 -60 5 -44 33 11 22 22
23 50 9z m359 -256 c0 -8 -54 -84 -82 -115 -13 -14 -50 -47 -83 -74 -33 -26
-67 -56 -76 -67 -9 -10 -21 -18 -28 -18 -20 0 -12 29 12 45 13 8 29 26 35 40
6 14 33 38 59 54 27 17 68 55 92 86 37 47 71 70 71 49z m-40 -187 c0 -16 -27
-41 -52 -50 -10 -3 -15 -12 -12 -20 9 -25 -108 -151 -201 -215 -62 -42 -114
-93 -147 -142 -37 -55 -94 -110 -114 -110 -17 0 -17 4 -4 28 5 9 19 43 31 75
22 60 33 68 56 40 13 -16 14 -15 9 15 -5 32 -3 35 33 49 26 10 44 25 52 44 7
17 18 28 27 27 9 -2 21 8 28 20 6 13 25 32 42 42 16 10 50 47 76 83 52 73 117
123 164 126 6 1 12 -5 12 -12z m-260 -122 c0 -16 -47 -73 -69 -84 -49 -24 -53
-24 -50 -8 6 24 119 112 119 92z m-287 -295 c5 -21 -6 -33 -35 -37 -23 -4 -23
15 -1 39 21 23 29 23 36 -2z m-68 -87 c-3 -21 -8 -47 -10 -59 -3 -11 -39 -55
-81 -98 -62 -63 -80 -77 -102 -74 -15 2 -28 10 -30 19 -3 16 204 249 221 249
4 0 5 -17 2 -37z m65 -87 c0 -13 -7 -30 -16 -37 -9 -7 -20 -23 -25 -36 -4 -12
-28 -34 -51 -49 -67 -42 -88 -83 -40 -76 24 4 28 -8 10 -26 -9 -9 -9 -12 0
-12 44 0 -44 -86 -104 -101 -45 -12 -50 -20 -45 -71 2 -12 -5 -18 -18 -18 -14
0 -27 13 -41 40 -11 21 -20 43 -20 48 0 5 58 68 129 139 87 88 132 142 141
167 8 25 18 36 31 36 10 0 19 5 19 10 0 6 7 10 15 10 9 0 15 -9 15 -24z m-13
-113 c-29 -30 -45 -26 -25 6 12 19 37 32 47 24 3 -2 -7 -16 -22 -30z m-1817
-521 c0 -13 -12 -22 -22 -16 -10 6 -1 24 13 24 5 0 9 -4 9 -8z"/>
<path d="M13265 17355 c-19 -20 -54 -83 -80 -143 -41 -92 -47 -116 -46 -170 1
-70 8 -110 24 -131 6 -7 16 -21 22 -31 27 -47 95 -144 95 -135 0 6 5 62 10
125 13 161 24 520 16 520 -4 0 -22 -16 -41 -35z"/>
<path d="M11425 15985 c-14 -14 -25 -34 -25 -43 0 -26 -30 -64 -45 -58 -16 6
-92 -29 -122 -56 -13 -12 -29 -18 -40 -14 -15 5 -19 2 -19 -12 1 -11 -35 -59
-79 -107 -44 -48 -86 -96 -92 -106 -15 -20 -81 -63 -103 -66 -8 -1 -22 -12
-30 -24 -28 -40 -72 -79 -91 -79 -10 0 -26 -11 -35 -25 -8 -13 -39 -37 -67
-53 -29 -16 -72 -46 -95 -66 -24 -20 -50 -36 -57 -36 -7 0 -23 -16 -36 -36
-13 -21 -37 -43 -58 -51 -37 -16 -145 -120 -187 -182 -14 -20 -55 -81 -92
-137 -149 -225 -213 -313 -329 -453 -20 -24 -50 -61 -67 -83 -17 -22 -55 -67
-83 -101 -29 -34 -62 -73 -73 -87 -51 -65 -128 -168 -145 -195 -10 -16 -22
-34 -27 -40 -5 -5 -36 -48 -69 -95 -34 -47 -72 -97 -87 -112 l-26 -28 27 -27
c14 -16 42 -66 62 -113 20 -46 37 -86 38 -87 3 -2 114 84 186 145 25 20 65 52
90 71 25 19 48 38 51 41 3 3 39 33 80 65 41 32 77 62 80 65 3 3 50 42 105 85
55 44 102 82 105 85 3 3 61 50 130 105 69 54 132 106 141 115 9 8 26 22 39 30
12 8 28 20 34 26 6 5 47 38 91 73 129 102 147 116 206 164 31 25 76 57 100 73
43 26 150 106 177 131 7 7 34 29 60 50 26 21 63 52 82 70 19 17 54 46 78 63
41 29 143 129 270 262 32 34 57 71 64 94 7 26 27 55 59 84 34 32 50 55 54 80
3 19 8 49 11 66 3 17 -1 46 -9 66 -8 19 -18 66 -22 104 -8 83 -23 149 -43 188
-8 16 -15 42 -16 58 -3 43 -18 52 -48 28 -55 -43 -66 -15 -13 32 40 35 41 55
2 50 -19 -2 -27 1 -27 12 0 24 -36 19 -65 -9z m89 -142 c10 -25 -20 -51 -42
-37 -9 6 -17 17 -17 25 -1 30 49 40 59 12z m-44 -215 c-1 -7 -6 -23 -13 -35
-9 -16 -16 -20 -27 -13 -18 11 -20 30 -5 47 13 16 45 16 45 1z m-305 -167 c3
-5 1 -12 -5 -16 -5 -3 -10 1 -10 9 0 18 6 21 15 7z m-21 -27 c7 -19 -1 -34
-19 -34 -21 0 -28 19 -15 35 16 19 26 19 34 -1z m176 -129 c0 -8 -7 -15 -15
-15 -16 0 -20 12 -8 23 11 12 23 8 23 -8z m-360 -135 c0 -5 -4 -10 -9 -10 -6
0 -13 5 -16 10 -3 6 1 10 9 10 9 0 16 -4 16 -10z m100 -55 c0 -8 -7 -15 -15
-15 -9 0 -12 6 -9 15 4 8 10 15 15 15 5 0 9 -7 9 -15z m-315 -46 c0 -7 -8 -15
-17 -17 -18 -3 -25 18 -11 32 10 10 28 1 28 -15z m39 -230 c-3 -5 -10 -7 -15
-3 -5 3 -7 10 -3 15 3 5 10 7 15 3 5 -3 7 -10 3 -15z"/>
<path d="M11290 15963 c-8 -3 -23 -14 -34 -25 -11 -10 -23 -18 -28 -18 -4 0
-8 -5 -8 -10 0 -13 23 -1 65 34 30 26 31 29 5 19z"/>
<path d="M11140 15928 c-14 -13 -51 -45 -83 -72 -39 -32 -56 -54 -52 -64 3 -8
0 -21 -6 -28 -13 -16 -59 -19 -59 -4 0 6 -9 1 -21 -11 -11 -11 -33 -25 -47
-30 -15 -5 -36 -23 -47 -39 -11 -17 -23 -30 -27 -30 -13 0 -172 -111 -191
-134 -49 -56 -65 -75 -98 -116 -38 -48 -63 -90 -54 -90 15 0 53 26 92 63 95
89 119 107 151 113 29 6 37 14 33 36 -2 14 72 87 100 98 16 7 29 16 29 20 0
21 53 68 82 74 18 4 50 18 70 31 21 14 41 25 46 25 18 0 44 39 38 57 -4 13 1
21 16 28 24 11 62 68 56 85 -2 6 -14 0 -28 -12z"/>
<path d="M10604 15879 c-3 -6 -2 -15 2 -19 12 -12 38 5 30 19 -9 14 -23 14
-32 0z"/>
<path d="M10715 15840 c-14 -16 -15 -20 -4 -20 16 0 39 19 39 32 0 14 -16 9
-35 -12z"/>
<path d="M10638 15816 c-23 -17 -23 -36 0 -36 12 0 18 8 20 25 2 29 3 29 -20
11z"/>
<path d="M10577 15655 c-4 -24 -3 -25 16 -12 28 19 33 37 9 37 -13 0 -21 -8
-25 -25z"/>
<path d="M10965 12980 c-33 -17 -72 -30 -87 -30 -28 0 -141 -35 -212 -65 -21
-9 -52 -18 -70 -19 -17 -2 -50 -9 -74 -16 -32 -10 -45 -11 -54 -2 -19 19 -50
13 -97 -18 -33 -23 -55 -30 -91 -30 -25 0 -50 -4 -56 -9 -25 -24 -106 -61
-134 -61 -42 0 -116 -18 -167 -41 -24 -10 -47 -19 -53 -19 -6 0 -4 -13 5 -30
9 -16 19 -30 23 -30 5 0 16 -15 25 -32 22 -42 58 -93 102 -143 19 -22 52 -62
73 -88 21 -26 49 -55 61 -63 12 -9 33 -41 47 -72 14 -32 42 -75 64 -97 21 -22
48 -61 59 -88 21 -48 90 -141 158 -210 36 -37 39 -38 83 -30 25 4 77 8 115 8
57 0 75 -4 92 -20 29 -28 23 -71 -20 -141 l-36 -57 49 -49 c28 -27 51 -54 52
-61 0 -7 2 -25 3 -42 1 -16 6 -31 11 -33 18 -6 136 -68 282 -146 100 -53 190
-92 282 -122 74 -24 187 -62 250 -83 63 -22 118 -40 122 -41 11 0 63 79 101
155 45 89 75 168 127 330 22 72 45 139 50 150 5 11 28 79 52 150 39 115 43
136 37 185 -4 30 -10 82 -13 115 -17 147 -38 216 -91 294 -60 89 -181 258
-198 276 -7 7 -34 39 -62 71 -157 181 -179 197 -307 224 -50 11 -103 28 -117
37 -21 14 -54 18 -176 20 -149 2 -151 2 -210 -27z m-530 -850 c3 -5 -4 -19
-17 -32 -24 -24 -36 -11 -18 21 12 23 25 27 35 11z m259 -6 c21 -21 20 -37 -5
-60 -15 -13 -24 -16 -36 -8 -32 20 -38 41 -19 63 23 25 39 26 60 5z"/>
<path d="M16771 12728 c-15 -42 -7 -48 13 -9 9 16 12 32 7 35 -5 3 -14 -8 -20
-26z"/>
<path d="M16484 12368 c-34 -35 -64 -71 -68 -81 -10 -30 72 40 102 87 15 23
31 44 37 48 7 5 7 8 0 8 -6 0 -38 -28 -71 -62z"/>
<path d="M8575 12256 c-49 -13 -110 -32 -135 -43 -25 -11 -51 -18 -58 -15 -16
5 -128 -17 -154 -30 -29 -14 -301 -89 -343 -94 -22 -2 -45 -12 -52 -21 -10
-13 -15 -14 -27 -4 -18 15 -56 5 -56 -15 0 -24 -38 -54 -70 -54 -18 0 -33 -6
-36 -15 -4 -9 -16 -13 -34 -11 -18 2 -31 -2 -34 -10 -3 -8 -20 -14 -39 -14
-29 0 -37 -5 -46 -29 -7 -15 -23 -34 -37 -41 -28 -15 -29 -23 -31 -295 -1 -56
4 -465 6 -511 1 -20 5 -21 94 -18 50 2 120 8 155 14 155 25 198 33 219 41 55
20 361 90 523 119 63 12 142 27 175 35 33 8 105 24 160 36 93 20 273 81 285
97 4 6 91 30 195 56 6 1 34 11 63 22 63 23 68 44 20 96 -18 20 -60 66 -93 104
-69 79 -105 114 -116 114 -4 0 -11 9 -14 20 -6 20 -104 149 -151 200 -13 14
-41 48 -63 75 -21 28 -61 78 -89 111 -28 34 -55 71 -61 83 -15 26 -38 26 -156
-3z m-811 -342 c7 -19 -10 -44 -31 -44 -23 0 -28 31 -8 46 24 18 32 18 39 -2z
m46 -15 c0 -5 -7 -9 -15 -9 -15 0 -20 12 -9 23 8 8 24 -1 24 -14z m36 -6 c-10
-10 -19 5 -10 18 6 11 8 11 12 0 2 -7 1 -15 -2 -18z m34 -23 c9 -16 8 -22 -5
-26 -8 -3 -22 -3 -30 0 -13 4 -14 10 -5 26 6 11 15 20 20 20 5 0 14 -9 20 -20z
m-180 -40 c0 -5 -4 -10 -10 -10 -5 0 -10 5 -10 10 0 6 5 10 10 10 6 0 10 -4
10 -10z"/>
<path d="M15984 11812 c-33 -27 -77 -69 -99 -93 -45 -49 -110 -149 -96 -149
17 0 91 83 91 101 0 12 13 26 35 36 19 9 35 20 35 25 0 4 4 8 10 8 23 0 100
103 87 116 -3 3 -31 -17 -63 -44z"/>
<path d="M10071 10773 c-21 -17 -103 -90 -190 -172 -20 -18 -71 -65 -114 -105
-44 -39 -95 -87 -116 -106 -20 -19 -72 -66 -115 -105 -44 -38 -84 -75 -90 -80
-6 -6 -38 -33 -71 -60 -33 -28 -62 -52 -65 -55 -3 -3 -25 -21 -50 -40 -25 -19
-49 -40 -55 -46 -15 -17 -174 -136 -233 -174 -38 -24 -52 -40 -52 -57 0 -21
-4 -23 -57 -23 -42 0 -66 -6 -88 -21 -57 -38 -126 -70 -183 -83 l-57 -12 -3
-52 c-2 -37 -7 -52 -17 -52 -11 0 -14 -11 -12 -45 2 -29 -2 -46 -10 -49 -7 -3
-13 -21 -13 -40 0 -21 -6 -36 -15 -40 -11 -4 -13 -15 -9 -46 4 -31 2 -41 -10
-46 -10 -4 -16 -18 -16 -36 0 -16 -6 -36 -14 -43 -8 -8 -12 -28 -9 -50 2 -25
-1 -37 -12 -41 -11 -4 -15 -20 -15 -55 0 -27 -4 -49 -10 -49 -5 0 -10 -13 -10
-30 0 -16 -7 -33 -16 -38 -12 -7 -15 -20 -12 -50 2 -28 -1 -43 -9 -46 -7 -3
-13 -21 -13 -41 0 -23 -5 -35 -14 -35 -10 0 -14 -13 -14 -47 0 -26 -5 -49 -11
-51 -6 -2 -11 -17 -11 -34 0 -16 -6 -36 -14 -43 -7 -8 -12 -30 -11 -50 2 -24
-2 -38 -11 -42 -8 -3 -14 -19 -14 -38 0 -18 -6 -35 -13 -38 -8 -3 -12 -20 -10
-46 1 -29 -3 -44 -13 -48 -9 -3 -14 -21 -14 -54 0 -27 -4 -49 -10 -49 -5 0
-10 -13 -10 -29 0 -16 -7 -34 -15 -41 -9 -8 -15 -30 -15 -56 0 -24 -4 -44 -10
-44 -5 0 -10 -15 -10 -34 0 -21 -6 -36 -15 -40 -11 -4 -14 -15 -10 -40 3 -24
-1 -41 -11 -51 -10 -10 -13 -22 -8 -33 7 -15 8 -15 11 3 2 12 13 27 25 34 18
11 23 11 33 -3 10 -12 18 -14 41 -7 16 5 85 19 154 31 69 12 139 29 155 38 17
9 30 15 30 13 0 -1 13 2 28 8 16 6 37 11 47 11 10 0 25 6 32 13 18 18 267 125
309 134 19 3 36 9 39 12 7 8 37 27 93 56 27 15 96 61 154 103 58 42 160 116
226 164 289 205 323 234 547 459 124 124 277 271 340 325 63 54 130 117 149
139 20 22 83 90 142 150 126 130 212 223 265 285 22 25 45 51 52 58 6 7 12 17
12 22 0 5 53 62 118 127 105 104 212 232 212 252 0 9 -63 36 -120 51 -25 7
-58 18 -75 25 -16 7 -70 25 -119 39 -50 14 -106 36 -125 49 -20 13 -81 46
-136 72 -55 27 -108 56 -118 64 -12 10 -42 16 -87 17 -59 2 -75 7 -124 38 -31
20 -56 40 -56 45 0 5 -24 21 -52 36 -29 15 -65 40 -79 56 -30 33 -64 37 -98
12z m-83 -190 c-2 -10 -12 -18 -23 -18 -11 0 -21 8 -23 18 -3 13 3 17 23 17
20 0 26 -4 23 -17z m710 -136 c2 -12 -3 -17 -17 -17 -23 0 -24 1 -15 25 8 19
28 15 32 -8z m-1138 -238 c0 -6 -4 -7 -10 -4 -5 3 -10 11 -10 16 0 6 5 7 10 4
6 -3 10 -11 10 -16z m-102 -56 c13 -26 4 -43 -24 -43 -39 0 -32 55 8 59 4 1
11 -7 16 -16z m152 2 c0 -8 -4 -15 -10 -15 -5 0 -10 7 -10 15 0 8 5 15 10 15
6 0 10 -7 10 -15z m-70 -25 c0 -5 -4 -10 -10 -10 -5 0 -10 5 -10 10 0 6 5 10
10 10 6 0 10 -4 10 -10z m324 -61 c-3 -5 -10 -7 -15 -3 -5 3 -7 10 -3 15 3 5
10 7 15 3 5 -3 7 -10 3 -15z m-400 -300 c-3 -5 -10 -7 -15 -3 -5 3 -7 10 -3
15 3 5 10 7 15 3 5 -3 7 -10 3 -15z m69 -171 c14 -21 2 -48 -22 -48 -24 0 -31
18 -20 48 10 25 27 25 42 0z m332 -187 c7 -12 -12 -24 -25 -16 -11 7 -4 25 10
25 5 0 11 -4 15 -9z m45 -57 c0 -16 -26 -19 -35 -4 -4 6 -4 18 -1 27 5 12 9
13 21 3 8 -7 15 -19 15 -26z m268 -117 c2 -11 -3 -17 -17 -17 -23 0 -35 15
-26 31 10 15 39 6 43 -14z"/>
<path d="M11880 6173 c-25 -7 -54 -15 -65 -17 -181 -35 -698 -233 -850 -327
-55 -34 -138 -81 -185 -105 -47 -24 -110 -59 -140 -78 -202 -127 -250 -159
-250 -167 0 -5 -6 -9 -13 -9 -7 0 -46 -22 -87 -49 -71 -47 -100 -70 -180 -145
-32 -29 -58 -51 -200 -165 -81 -65 -125 -118 -223 -265 -100 -151 -102 -155
-112 -264 -6 -58 -3 -78 20 -142 49 -136 115 -261 148 -279 16 -9 46 -27 66
-40 57 -38 141 -61 208 -56 127 9 219 9 239 -2 12 -7 26 -8 34 -3 8 5 35 9 60
10 50 1 239 1 255 0 6 -1 35 6 65 15 78 22 243 30 565 29 438 -3 425 -1 362
-62 -35 -34 -74 -51 -434 -187 -358 -136 -481 -187 -863 -363 -130 -59 -410
-182 -417 -182 -3 0 -63 -25 -132 -56 -133 -60 -252 -131 -286 -170 -11 -13
-26 -24 -33 -24 -38 0 -61 -111 -53 -263 1 -24 3 -26 21 -17 12 7 20 7 20 1 0
-5 -9 -13 -20 -16 -24 -8 -27 -25 -4 -25 8 0 12 -4 9 -10 -13 -20 22 -9 44 14
12 13 30 23 39 21 28 -4 74 16 143 62 36 24 76 45 88 48 13 2 30 10 38 17 8 6
24 13 36 15 11 2 26 8 33 14 6 5 23 12 35 14 22 4 53 18 184 80 54 26 156 61
200 69 32 6 46 16 22 16 -10 0 -17 5 -17 10 0 6 7 10 15 10 9 0 33 9 55 20 22
11 54 20 72 20 18 0 51 9 72 21 21 11 45 18 52 15 8 -3 14 -1 14 5 0 6 6 9 14
6 9 -3 21 4 30 19 9 13 23 24 30 24 8 0 16 5 18 11 2 7 24 12 48 13 27 1 44 6
43 12 -1 6 16 14 38 17 22 3 46 12 52 21 7 9 32 19 57 22 25 3 58 9 74 14 15
6 32 8 36 5 5 -3 35 3 69 14 51 16 62 17 72 5 9 -11 6 -16 -16 -24 -14 -5 -33
-10 -42 -10 -10 0 -13 -6 -9 -16 5 -14 2 -15 -21 -9 -58 14 -89 11 -192 -22
-58 -19 -114 -39 -124 -45 -34 -18 -9 -21 39 -4 69 23 77 19 17 -9 -29 -13
-53 -29 -53 -34 0 -6 16 -1 36 11 22 13 51 21 73 20 21 -1 46 5 57 13 18 14
17 14 -9 5 -16 -5 -31 -10 -35 -10 -12 0 69 51 105 66 36 16 59 11 33 -7 -11
-7 -2 -8 30 -3 24 3 61 18 82 31 25 17 43 23 55 18 17 -8 17 -8 1 -12 -10 -2
-38 -15 -64 -28 -26 -13 -51 -22 -56 -19 -4 3 -8 1 -8 -5 0 -5 -15 -13 -32
-17 -18 -3 -38 -14 -44 -23 -7 -9 -18 -16 -26 -16 -19 -1 -68 -27 -68 -37 0
-4 -7 -8 -16 -8 -9 0 -42 -13 -73 -29 -56 -29 -230 -101 -244 -101 -4 0 -60
-24 -125 -53 -141 -64 -173 -79 -149 -72 61 17 70 18 62 4 -5 -8 -4 -11 1 -6
5 5 9 14 9 20 0 11 47 27 120 41 6 1 36 16 67 34 31 18 67 35 80 37 25 5 111
37 168 62 56 25 150 52 150 43 0 -5 -13 -11 -28 -15 -16 -3 -62 -19 -103 -36
-41 -16 -58 -26 -39 -22 19 4 45 6 57 6 24 -1 56 -27 46 -37 -4 -3 1 -6 10 -6
20 0 31 17 15 23 -13 6 -4 7 65 12 56 4 100 24 87 40 -8 10 -7 15 5 18 11 4
11 4 -2 3 -10 -1 -17 -7 -16 -13 2 -11 -52 -29 -69 -25 -5 1 -8 -2 -8 -7 0 -5
-9 -7 -20 -4 -22 6 -27 23 -7 24 42 3 57 7 72 22 9 9 34 20 56 23 21 4 39 11
39 17 0 6 6 3 13 -8 9 -11 16 -14 20 -8 4 6 22 8 47 3 25 -5 43 -3 47 3 3 6 1
7 -5 3 -7 -4 -12 -5 -12 -2 0 11 72 47 102 51 44 5 116 24 153 40 17 7 55 20
85 30 30 10 60 21 66 26 6 5 31 16 55 24 24 9 79 34 122 56 43 23 92 45 108
49 92 27 339 197 339 235 0 6 10 28 22 50 21 39 33 142 27 225 0 8 2 71 5 141
8 167 -3 192 -150 317 -33 29 -64 52 -69 52 -5 0 -17 7 -27 16 -9 9 -38 18
-63 19 -26 2 -58 8 -73 13 -42 16 -97 23 -222 27 -63 3 -169 7 -235 11 -164 8
-238 8 -315 0 -103 -12 -791 -10 -822 2 -57 23 -46 56 39 117 30 22 65 50 77
61 41 41 271 208 305 222 9 4 88 45 176 92 259 137 426 211 505 223 14 2 34 8
45 13 22 9 131 11 140 3 3 -3 -20 -50 -50 -103 -30 -54 -55 -100 -55 -103 0
-4 -11 -21 -25 -39 -14 -18 -25 -42 -25 -53 0 -11 -10 -25 -21 -32 -19 -10
-21 -17 -15 -72 7 -72 20 -88 77 -94 45 -6 69 -22 69 -47 0 -9 6 -16 13 -16 6
0 45 -16 86 -34 84 -39 109 -38 160 3 30 23 95 114 117 161 4 8 15 26 24 40
10 14 35 59 56 100 21 41 57 105 81 142 24 36 43 69 43 72 0 2 18 44 40 91 22
47 40 89 40 92 0 3 16 38 36 78 30 61 37 87 41 159 5 76 3 91 -19 138 -14 29
-33 76 -43 103 -10 28 -28 66 -40 85 -12 19 -34 59 -49 88 -14 28 -33 52 -41
52 -8 0 -15 6 -15 13 0 12 -36 32 -87 46 -17 5 -45 2 -73 -6z m-635 -2725 c5
-5 -49 -27 -102 -43 -41 -12 -24 10 25 31 46 20 66 24 77 12z m-210 -217 c-4
-8 -62 -41 -71 -41 -1 0 0 9 3 20 4 13 11 19 22 16 9 -3 23 -1 31 4 19 12 23
12 15 1z"/>
<path d="M5694 6118 c-37 -26 -82 -65 -98 -85 -17 -21 -37 -45 -44 -53 -20
-23 -122 -184 -187 -295 -32 -55 -92 -149 -134 -209 -42 -59 -84 -122 -95
-140 -32 -53 -178 -249 -221 -294 -22 -24 -44 -51 -49 -60 -5 -10 -46 -66 -91
-127 -114 -153 -274 -379 -315 -445 -50 -80 -122 -179 -149 -206 -28 -28 -188
-81 -370 -121 -28 -7 -137 -111 -139 -133 0 -8 -5 -33 -11 -55 -13 -51 -8
-253 7 -281 24 -44 78 -64 137 -51 60 14 75 16 80 8 5 -8 -26 -73 -67 -139
-78 -128 -278 -528 -278 -557 0 -18 6 -26 25 -30 14 -3 36 -7 50 -10 19 -4 27
-14 32 -37 5 -25 15 -35 61 -55 57 -27 104 -33 110 -15 2 6 20 32 40 59 25 32
38 43 40 32 2 -12 13 -6 41 23 43 42 61 48 61 19 0 -41 19 -29 48 31 36 76
142 257 142 243 0 -6 -9 -28 -21 -49 -30 -56 -16 -55 21 1 18 26 38 53 44 58
7 6 30 41 51 79 129 225 158 273 189 311 20 24 24 26 21 10 -2 -11 -4 -28 -4
-37 -1 -9 -12 -29 -25 -45 -13 -16 -28 -46 -32 -68 -4 -21 -11 -44 -16 -50
-57 -69 -88 -117 -88 -133 0 -11 -8 -23 -18 -26 -17 -6 -41 -49 -57 -105 -4
-14 -18 -36 -31 -50 -13 -14 -24 -33 -24 -41 1 -10 10 -4 26 15 13 17 44 52
67 79 27 31 43 59 44 79 1 16 5 33 10 36 5 3 13 14 16 24 4 11 16 21 26 24 11
3 17 11 15 17 -3 7 7 21 21 32 14 10 25 28 25 39 0 11 9 31 20 45 11 14 20 29
20 34 0 4 14 28 30 53 46 68 74 126 71 147 -1 10 2 22 8 25 37 23 120 104 171
166 63 77 51 70 199 107 28 7 45 18 49 30 2 11 13 18 27 18 12 0 28 7 35 15
11 13 15 13 21 3 7 -10 9 -10 9 -1 0 7 7 10 16 6 16 -6 94 25 94 38 0 7 116
37 179 45 18 2 36 6 40 9 4 2 36 7 72 11 35 4 74 11 87 15 13 5 35 9 49 9 l25
0 -7 -132 c-7 -131 -7 -571 -1 -658 2 -25 7 -99 10 -165 7 -123 8 -134 26
-290 17 -152 20 -158 86 -181 40 -14 59 -10 68 12 3 9 10 13 15 9 6 -3 15 4
21 15 6 11 17 20 25 20 20 0 86 36 97 52 4 7 8 23 8 35 0 12 6 26 14 30 11 7
48 67 46 75 -1 2 1 10 4 18 2 8 11 37 20 64 9 27 16 59 16 72 0 12 6 27 14 33
7 6 16 34 20 61 4 27 11 52 16 55 5 3 7 0 4 -8 -3 -8 -1 -18 5 -22 7 -4 11 6
12 27 0 18 4 42 8 53 5 11 4 30 -2 42 -5 12 -6 30 -2 40 9 20 8 63 -1 173 -8
88 -8 122 -2 170 5 37 0 63 -11 56 -4 -3 -5 12 -3 32 2 28 1 33 -7 22 -6 -8
-11 -38 -11 -66 0 -30 -9 -71 -21 -98 -16 -37 -18 -50 -9 -62 9 -10 9 -14 1
-14 -6 0 -11 -6 -11 -14 0 -8 -6 -16 -14 -19 -7 -3 -13 0 -13 6 1 42 -4 77
-11 73 -11 -6 -2 135 10 157 15 29 18 16 9 -48 -5 -34 -5 -61 0 -63 5 -2 9
-13 10 -25 1 -18 3 -16 10 8 16 49 21 88 11 81 -6 -3 -8 18 -5 54 3 46 0 64
-12 76 -13 14 -15 13 -15 -8 0 -13 -5 -30 -11 -38 -9 -12 -8 56 1 138 0 1 7 2
15 2 11 0 14 -7 10 -27 -4 -22 -4 -24 4 -8 4 11 6 35 3 54 -4 24 -2 32 6 27
13 -8 16 15 14 91 -1 23 5 56 13 75 8 18 14 26 15 18 0 -10 3 -11 8 -4 8 12
148 57 175 56 9 0 17 4 17 9 0 6 -10 10 -22 9 -37 -3 -48 -1 -48 12 0 6 3 8 7
5 3 -4 17 0 30 8 12 8 36 14 51 13 20 -1 42 8 70 31 23 17 58 35 79 38 35 6
47 15 95 73 23 28 20 47 -12 60 -16 7 -27 16 -25 20 3 5 -5 10 -17 13 -13 2
12 3 55 2 42 -2 77 1 77 6 0 5 7 9 15 9 8 0 15 4 15 9 0 22 -285 33 -432 18
-39 -4 -58 -2 -61 6 -5 15 0 358 6 407 3 19 8 76 12 125 11 159 23 290 29 320
8 44 16 103 21 160 7 86 17 177 21 198 2 10 -9 48 -24 84 -28 69 -88 139 -128
149 -13 3 -24 10 -24 15 0 15 -42 48 -89 70 -25 12 -58 30 -73 41 -35 25 -110
19 -142 -11 -15 -14 -26 -17 -36 -11 -26 17 -93 33 -141 35 -40 1 -55 -5 -115
-47z m142 -1062 c-3 -35 -6 -146 -7 -247 -1 -169 -9 -283 -20 -293 -2 -2 -40
-6 -85 -10 -45 -3 -87 -8 -95 -10 -8 -3 -27 -7 -44 -9 -44 -7 -140 -33 -222
-61 -40 -14 -75 -21 -78 -16 -3 5 9 24 27 43 18 19 47 52 63 73 17 21 37 45
47 53 9 9 39 54 67 100 29 46 63 92 76 103 27 21 102 119 181 237 41 62 77
101 92 101 2 0 1 -29 -2 -64z m564 -801 c-33 -19 -50 -18 -26 0 11 8 27 15 35
15 10 -1 7 -6 -9 -15z m-1115 -255 c-3 -5 -11 -10 -16 -10 -6 0 -7 5 -4 10 3
6 11 10 16 10 6 0 7 -4 4 -10z m1022 -292 c-3 -8 -6 -5 -6 6 -1 11 2 17 5 13
3 -3 4 -12 1 -19z m-15 -130 c-8 -8 -9 -4 -5 13 4 13 8 18 11 10 2 -7 -1 -18
-6 -23z m-85 -10 c-3 -8 -6 -5 -6 6 -1 11 2 17 5 13 3 -3 4 -12 1 -19z m0 -40
c-3 -8 -6 -5 -6 6 -1 11 2 17 5 13 3 -3 4 -12 1 -19z m10 -75 c-3 -10 -5 -4
-5 12 0 17 2 24 5 18 2 -7 2 -21 0 -30z m58 -14 c-5 -42 -15 -50 -15 -12 0 26
6 43 16 43 2 0 1 -14 -1 -31z m-39 -87 c1 -26 2 -63 4 -82 l2 -35 11 28 c6 15
14 27 19 27 4 0 5 -6 2 -13 -2 -7 -6 -39 -8 -72 -2 -33 -7 -68 -11 -77 -12
-29 -28 -20 -23 12 5 36 -2 30 -20 -13 -12 -31 -12 -31 -5 13 4 25 8 88 9 140
2 117 2 120 12 120 4 0 8 -21 8 -48z m64 -6 c0 -2 -7 -9 -15 -16 -12 -10 -15
-10 -15 4 0 9 7 16 15 16 8 0 15 -2 15 -4z"/>
<path d="M8758 6165 c-2 -2 -46 -6 -98 -9 -52 -4 -106 -8 -120 -10 -14 -3 -49
-7 -78 -10 -66 -8 -106 -14 -212 -32 -92 -15 -102 -17 -170 -33 -25 -5 -56
-12 -70 -15 -63 -12 -506 -127 -600 -155 -58 -18 -116 -34 -130 -37 -13 -3
-29 -9 -35 -14 -6 -5 -22 -7 -36 -5 -25 5 -43 -5 -120 -63 -53 -40 -68 -65
-68 -112 -1 -42 7 -55 37 -64 12 -4 38 -32 57 -62 30 -46 35 -63 35 -114 0
-48 4 -62 20 -73 30 -21 116 -14 180 16 66 31 230 78 230 66 0 -4 -4 -10 -9
-13 -5 -3 -12 -21 -15 -40 -4 -19 -13 -39 -20 -45 -7 -6 -24 -39 -36 -74 -12
-34 -28 -69 -35 -77 -7 -8 -30 -51 -50 -95 -43 -92 -124 -255 -135 -270 -4 -5
-42 -77 -85 -160 -71 -138 -119 -203 -151 -205 -6 0 -21 -11 -33 -24 -26 -28
-32 -101 -11 -140 12 -23 1 -47 -130 -313 -179 -363 -255 -526 -337 -728 -35
-88 -75 -182 -88 -210 -59 -123 -82 -181 -79 -198 4 -28 51 -91 100 -137 40
-37 48 -40 95 -38 31 2 53 8 56 15 3 7 10 13 16 13 6 0 25 15 42 33 17 17 41
40 54 51 24 18 24 18 18 -3 -9 -37 13 -22 34 22 10 23 26 51 34 61 8 11 15 27
15 36 0 9 13 31 29 49 16 18 50 81 76 139 26 59 63 133 81 165 19 32 37 69 40
82 3 14 12 29 19 33 7 4 20 23 28 42 11 25 16 29 16 15 0 -11 -16 -56 -38
-100 -21 -44 -50 -111 -66 -150 -15 -38 -35 -88 -45 -110 -9 -22 -19 -47 -22
-55 -3 -8 -15 -39 -27 -68 -12 -29 -17 -51 -11 -47 5 3 10 10 10 15 0 4 22 55
49 112 27 56 60 128 73 158 14 30 36 78 48 105 13 28 45 97 71 153 27 57 49
106 49 108 0 3 41 88 90 190 50 101 90 187 90 191 0 4 10 28 22 55 21 48 41
64 35 31 -5 -31 -59 -167 -77 -193 -10 -14 -31 -52 -47 -85 -16 -33 -51 -101
-76 -151 -26 -51 -47 -94 -47 -98 0 -3 -11 -30 -25 -61 -14 -30 -43 -105 -65
-165 -22 -61 -53 -138 -68 -173 -16 -34 -37 -80 -47 -102 -10 -22 -22 -49 -28
-60 -6 -14 -6 -17 1 -10 14 13 157 302 166 335 9 29 99 210 104 206 1 -2 -13
-36 -32 -77 -34 -73 -52 -149 -37 -149 5 0 11 14 15 32 6 29 54 137 67 148 7
7 39 76 39 86 0 10 59 104 83 131 10 12 16 26 12 32 -3 6 -1 11 5 11 7 0 10 7
7 15 -4 8 -2 17 3 20 4 3 16 27 26 53 9 26 27 57 38 70 12 13 21 31 22 40 1
37 17 92 25 92 5 0 9 6 9 13 1 6 23 35 50 62 28 28 50 55 50 61 0 7 15 14 33
17 70 11 104 20 157 38 123 45 175 59 224 65 56 6 145 31 161 45 5 5 16 9 25
9 13 0 19 -18 29 -82 7 -46 26 -144 42 -218 17 -74 32 -142 34 -150 5 -25 26
-103 36 -135 5 -16 25 -84 45 -150 77 -256 238 -658 273 -679 6 -4 18 -23 26
-42 8 -19 18 -34 24 -34 5 0 12 -14 16 -30 4 -17 15 -35 26 -41 22 -11 141
-10 160 2 15 9 20 77 7 85 -5 4 7 16 27 29 35 20 36 22 15 28 -12 3 -19 10
-15 16 8 15 38 14 53 -1 30 -30 8 34 -58 168 -38 79 -70 147 -70 152 0 5 -14
36 -30 69 -25 49 -32 78 -36 147 -4 75 -3 85 10 80 9 -3 17 -17 17 -30 1 -13
2 -27 4 -31 1 -5 5 -25 9 -45 5 -21 12 -38 16 -38 4 0 12 -18 19 -41 7 -22 36
-89 64 -147 68 -137 70 -142 80 -142 12 0 0 44 -28 105 -31 69 -75 210 -75
242 0 41 -20 140 -46 228 -12 44 -33 127 -44 185 -12 58 -28 130 -35 160 -8
30 -17 87 -20 125 -4 39 -9 72 -10 75 -5 7 -17 135 -20 200 -2 30 -6 69 -10
85 -6 30 -6 31 152 121 87 51 219 122 293 160 74 37 154 80 177 96 23 15 44
28 46 28 7 0 94 57 217 142 58 40 123 93 145 119 22 26 55 65 73 86 46 54 70
110 87 205 8 46 17 94 21 108 8 34 11 241 3 246 -4 2 -10 21 -14 41 -9 53 -56
130 -107 180 -100 97 -281 173 -478 199 -86 11 -603 27 -612 19z m449 -515
c68 -14 135 -39 145 -54 14 -20 8 -65 -13 -106 -24 -46 -90 -108 -209 -199
-140 -105 -236 -158 -590 -323 -167 -78 -551 -241 -556 -235 -7 7 195 392 245
466 47 70 59 121 49 191 -5 30 -13 59 -19 66 -5 6 -10 29 -12 50 -2 38 -2 39
53 56 74 25 229 55 314 63 83 7 146 14 176 20 12 2 58 7 103 11 45 3 83 7 85
9 7 6 179 -5 229 -15z m-1734 -1595 c-3 -9 -8 -14 -10 -11 -3 3 -2 9 2 15 9
16 15 13 8 -4z m-151 -128 c-13 -15 -43 -100 -37 -105 2 -2 10 12 18 31 8 19
20 38 27 42 11 7 -2 -25 -35 -86 -8 -15 -37 -78 -64 -142 -55 -127 -105 -220
-114 -211 -7 7 -42 -48 -82 -127 -79 -159 -30 -3 65 206 107 234 201 404 224
405 5 0 4 -6 -2 -13z m149 -15 c-5 -10 -18 -25 -27 -33 -16 -12 -17 -12 -9 1
10 18 37 50 42 50 2 0 -1 -8 -6 -18z m-52 -84 c-5 -18 -16 -39 -25 -48 -9 -8
-15 -10 -12 -5 3 6 12 27 22 48 21 45 28 48 15 5z m-103 -219 c-19 -41 -34
-63 -32 -49 2 23 58 132 64 126 1 -2 -13 -37 -32 -77z m1375 -126 c12 -38 28
-77 34 -88 18 -28 28 -88 14 -83 -6 2 -10 7 -10 11 0 3 -11 37 -25 74 -32 84
-44 124 -44 140 0 27 9 11 31 -54z m-77 -98 c7 -45 2 -38 -13 19 -6 22 -6 35
-1 30 4 -5 11 -27 14 -49z"/>
<path d="M7129 3514 c-5 -15 -12 -31 -15 -35 -3 -5 -1 -9 4 -9 5 0 13 16 19
35 13 41 7 47 -8 9z"/>
<path d="M16078 6145 c-2 -1 -39 -6 -83 -10 -44 -4 -83 -9 -86 -11 -3 -2 -42
-6 -87 -9 -75 -5 -123 -10 -182 -21 -14 -2 -52 -7 -85 -10 -33 -2 -84 -7 -113
-9 -29 -3 -87 -13 -130 -24 -42 -11 -93 -22 -112 -24 -102 -15 -127 -21 -166
-37 -23 -10 -53 -31 -68 -47 -14 -15 -26 -22 -26 -16 0 7 5 15 10 18 18 11 -8
34 -45 41 -20 3 -35 13 -38 23 -7 26 -86 61 -152 67 -50 4 -63 1 -95 -20 -20
-13 -43 -38 -50 -55 -7 -17 -18 -31 -25 -31 -8 0 -19 -17 -25 -37 -7 -21 -18
-42 -24 -48 -11 -9 -42 -104 -52 -161 -7 -36 -112 -350 -156 -464 -50 -129
-286 -688 -333 -787 -59 -125 -300 -505 -377 -594 -13 -15 -48 -58 -78 -95
-71 -89 -295 -314 -312 -314 -7 0 -26 -7 -42 -15 -16 -9 -49 -15 -72 -14 l-42
3 -16 58 c-9 32 -16 65 -16 73 0 8 -5 15 -11 15 -13 0 -6 130 9 170 5 14 8 43
6 65 -1 23 3 47 11 55 7 8 15 33 19 55 12 86 53 266 70 312 8 21 24 72 35 113
12 41 39 131 61 200 46 146 90 298 90 312 0 6 25 63 56 127 76 156 117 245
147 314 14 31 30 57 35 57 9 0 52 72 52 88 0 6 14 33 31 60 35 57 40 111 14
163 -20 39 -94 119 -110 119 -6 0 -30 18 -53 40 -22 22 -48 40 -56 40 -9 0
-18 11 -22 24 -3 15 -17 29 -35 35 -16 5 -29 7 -29 4 0 -5 -39 27 -118 97 -12
11 -41 24 -64 29 -40 9 -43 8 -108 -45 -69 -57 -140 -160 -140 -203 0 -12 -7
-36 -16 -53 -8 -16 -21 -49 -29 -72 -20 -64 -122 -357 -170 -491 -24 -66 -57
-174 -75 -240 -18 -66 -43 -149 -55 -185 -13 -36 -25 -84 -28 -107 -3 -24 -15
-62 -26 -86 -20 -42 -43 -117 -55 -182 -3 -16 -16 -88 -30 -160 -13 -71 -27
-155 -31 -185 -3 -30 -8 -66 -10 -80 -17 -109 -23 -401 -11 -533 17 -190 43
-290 109 -427 94 -195 247 -282 502 -283 93 -1 105 1 173 32 39 19 72 37 72
40 0 4 8 7 18 8 40 3 78 15 97 32 11 11 31 22 45 26 56 17 105 50 190 128 48
45 124 111 168 147 49 40 102 97 141 150 33 47 81 105 106 130 24 25 44 49 45
53 0 8 53 88 73 112 38 46 145 204 202 299 39 64 82 136 97 159 15 23 36 58
45 77 10 19 24 39 31 43 12 8 48 73 51 92 1 6 20 42 41 82 22 40 40 76 40 82
0 5 38 85 84 178 77 155 194 453 201 508 1 13 12 38 23 57 12 19 19 37 17 40
-3 3 1 11 10 18 8 7 15 25 15 41 0 16 13 49 29 74 36 57 28 115 -9 70 -7 -8
-16 -12 -21 -9 -16 9 -10 40 11 59 12 10 18 25 16 32 -3 7 -2 13 3 13 4 0 14
11 21 25 l13 24 30 -42 c35 -49 48 -59 102 -85 76 -38 108 -46 176 -45 l68 1
-78 -226 c-138 -399 -375 -1056 -411 -1139 -11 -24 -17 -43 -15 -43 3 0 -6
-24 -19 -53 -12 -29 -29 -77 -36 -107 -14 -59 -54 -166 -91 -240 -23 -47 -69
-184 -69 -206 0 -16 -48 -74 -62 -74 -14 0 -127 -82 -167 -122 -42 -41 -121
-143 -121 -156 0 -5 -7 -15 -15 -22 -19 -16 -19 -51 -1 -94 13 -32 50 -53 62
-35 3 5 14 14 25 19 16 9 21 7 30 -14 7 -15 22 -26 37 -28 15 -2 26 -10 28
-20 1 -10 9 -25 18 -34 27 -27 43 -65 60 -149 9 -43 22 -83 29 -87 22 -14 35
-9 41 17 5 21 9 23 25 14 51 -32 129 36 156 134 20 75 41 90 37 27 0 -3 -3
-31 -5 -63 -4 -47 -3 -56 8 -47 7 6 18 31 25 55 15 53 34 60 28 10 -3 -27 0
-35 12 -35 10 0 25 9 35 20 10 11 28 20 40 20 32 0 80 67 138 195 l36 80 -2
-46 c-1 -26 -5 -45 -9 -42 -9 5 -10 -23 -2 -54 l6 -23 31 26 c40 34 128 78
149 75 9 -1 20 4 24 10 5 9 2 10 -12 6 -18 -7 -18 -6 -2 6 10 8 15 16 13 19
-3 3 9 11 27 19 18 7 66 35 107 61 40 26 79 48 85 48 6 0 25 12 41 26 17 14
45 32 63 40 33 14 37 38 4 28 -9 -3 10 8 43 24 33 16 99 54 147 85 47 32 90
57 95 57 6 0 22 14 36 30 15 17 35 30 45 30 10 0 27 7 38 15 16 13 16 14 2 9
-38 -13 -16 17 27 37 25 12 60 36 78 53 17 18 57 44 87 59 30 14 70 35 88 47
17 12 32 18 32 12 0 -10 -74 -62 -89 -62 -5 0 -11 -6 -14 -14 -3 -7 -31 -28
-61 -46 -31 -17 -61 -40 -66 -50 -8 -14 3 -10 42 15 29 18 67 45 84 59 18 14
36 26 40 26 5 0 32 21 59 45 28 25 58 48 68 51 9 3 17 11 17 19 0 7 16 19 36
25 23 8 32 15 24 20 -13 8 24 38 75 59 17 7 48 28 69 47 31 27 35 34 20 34
-13 1 -10 5 11 14 17 7 38 20 46 28 8 8 32 26 54 40 34 21 195 166 229 205 6
7 58 59 115 115 167 166 350 409 417 554 63 139 97 274 97 389 0 143 -14 245
-43 321 -16 43 -30 84 -30 91 0 7 -6 16 -13 20 -6 4 -24 26 -39 48 -27 40
-159 166 -228 217 -148 111 -423 201 -685 223 -75 7 -561 15 -567 10z m632
-609 c19 -3 46 -8 60 -10 125 -21 238 -67 256 -103 6 -13 18 -31 26 -40 35
-41 39 -157 7 -236 -33 -82 -34 -84 -121 -239 -77 -136 -110 -181 -213 -297
-62 -70 -67 -75 -120 -117 -27 -21 -93 -75 -146 -119 -53 -44 -111 -92 -130
-108 -71 -57 -332 -240 -539 -377 -118 -78 -261 -173 -317 -211 -56 -38 -104
-69 -107 -69 -11 0 8 36 35 67 27 31 59 115 79 208 6 27 21 63 34 80 24 32 50
98 62 155 3 19 10 41 14 50 35 72 84 214 96 280 4 19 20 67 36 105 17 39 41
101 55 140 14 38 52 130 85 205 33 74 82 189 108 255 54 133 130 288 157 317
37 41 235 75 423 72 69 -1 141 -4 160 -8z m-924 -2205 c-9 -10 -44 -32 -79
-50 -69 -35 -99 -53 -107 -63 -6 -7 -60 -19 -60 -13 0 2 20 13 45 24 24 11 57
31 72 45 15 14 39 28 53 31 14 3 36 14 50 25 32 25 48 26 26 1z m-31 -71 c-3
-5 -13 -10 -21 -10 -8 0 -14 -4 -14 -10 0 -13 -73 -58 -121 -75 -38 -14 -145
-83 -182 -119 -15 -14 -16 -20 -7 -26 9 -6 0 -15 -29 -29 -23 -12 -39 -26 -36
-31 7 -12 -27 -30 -59 -30 -16 0 -27 -7 -31 -21 -8 -23 -19 -16 -29 16 -5 18
5 27 67 62 40 23 83 53 96 67 13 14 27 23 32 21 4 -3 21 13 39 34 17 22 41 43
53 46 36 11 131 58 142 71 20 23 60 44 83 44 13 0 20 -4 17 -10z m-230 -70
c-3 -5 -16 -15 -28 -21 -19 -9 -19 -8 3 10 28 23 34 26 25 11z m-75 -53 c0 -8
-7 -14 -15 -14 -25 0 -17 17 13 26 1 1 2 -5 2 -12z m-43 -38 c-1 -12 -12 -26
-24 -32 -13 -6 -23 -13 -23 -17 0 -12 -72 -32 -82 -22 -10 10 79 73 129 91 1
1 1 -9 0 -20z"/>
<path d="M15363 3013 c-12 -2 -24 -11 -27 -19 -7 -18 -2 -18 34 1 28 15 40 27
23 24 -5 -1 -18 -4 -30 -6z"/>
<path d="M6293 4138 c0 -7 -4 -51 -8 -98 -12 -142 -13 -210 -4 -210 5 0 10 23
10 50 1 49 4 67 9 73 2 1 4 36 5 77 1 41 3 80 5 85 4 17 0 35 -8 35 -5 0 -9
-6 -9 -12z"/>
<path d="M16049 3373 c-13 -16 -12 -17 4 -4 16 13 21 21 13 21 -2 0 -10 -8
-17 -17z"/>
<path d="M8866 3303 c4 -16 14 -41 22 -58 8 -16 19 -43 23 -60 l7 -30 1 30 c0
17 -8 50 -19 74 -11 24 -20 49 -20 57 0 8 -5 14 -10 14 -6 0 -8 -11 -4 -27z"/>
<path d="M15867 3245 c-42 -29 -46 -35 -18 -28 17 4 72 53 60 53 -2 0 -21 -11
-42 -25z"/>
<path d="M7139 3238 c-1 -10 -2 -21 -4 -25 -2 -10 -63 -142 -77 -168 -11 -20
-11 -20 11 -1 11 11 21 23 21 27 0 5 13 30 29 56 34 57 44 93 31 113 -8 13
-10 12 -11 -2z"/>
<path d="M10685 3220 c-3 -5 -1 -10 4 -10 6 0 11 5 11 10 0 6 -2 10 -4 10 -3
0 -8 -4 -11 -10z"/>
<path d="M10555 3181 c-87 -31 -143 -55 -110 -47 19 5 136 39 179 53 12 4 17
2 13 -4 -5 -7 1 -9 15 -5 19 5 20 7 5 10 -9 2 -15 8 -12 13 9 13 -1 11 -90
-20z"/>
<path d="M10687 3079 c-11 -6 -24 -12 -30 -13 -7 -2 -28 -6 -47 -10 -19 -4
-42 -8 -50 -10 -22 -4 -71 -24 -101 -41 -14 -8 -28 -13 -30 -12 -2 1 2 -3 9
-9 7 -7 32 -10 58 -8 30 3 43 1 39 -6 -3 -5 -2 -10 3 -10 5 0 12 8 15 19 4 17
0 18 -37 14 l-41 -4 27 16 c32 18 120 37 112 24 -3 -5 -11 -9 -17 -9 -7 0 -14
-11 -15 -26 -1 -15 2 -23 8 -19 6 4 8 10 6 14 -7 11 66 50 82 44 6 -3 12 2 12
9 0 11 11 14 41 11 25 -2 38 1 34 7 -3 5 -13 10 -21 10 -8 0 -14 5 -14 10 0
13 -20 12 -43 -1z"/>
<path d="M10305 3065 c-65 -29 -134 -55 -148 -55 -7 0 -38 -13 -68 -29 -30
-16 -76 -35 -103 -42 -27 -7 -69 -23 -95 -35 -25 -13 -53 -24 -62 -24 -9 0
-24 -9 -34 -20 -10 -11 -24 -20 -30 -20 -7 0 -23 -8 -36 -18 -13 -10 -36 -19
-51 -20 -49 -3 -81 -18 -72 -33 2 -4 -7 -10 -20 -13 -13 -3 -26 -13 -30 -21
-3 -9 -2 -14 2 -12 4 2 24 12 44 22 22 10 35 22 31 28 -4 6 0 8 11 4 10 -4 15
-3 11 3 -4 6 10 10 34 10 23 0 46 7 55 16 9 8 27 17 41 20 41 7 74 22 122 55
24 17 61 36 81 41 20 5 51 16 67 23 99 44 168 66 191 61 26 -7 68 10 59 23 -6
11 22 34 33 27 5 -3 18 1 28 9 18 14 18 14 -6 14 -14 0 -38 -6 -55 -14z"/>
<path d="M15548 3037 c-59 -33 -111 -77 -91 -77 6 0 21 11 34 25 13 13 30 25
37 25 20 0 70 32 76 47 3 7 4 13 3 12 -1 0 -28 -15 -59 -32z"/>
<path d="M10324 2959 c-4 -7 -3 -9 4 -5 6 3 13 2 17 -3 3 -6 -11 -13 -32 -16
-63 -11 -61 -13 9 -12 38 1 68 3 68 4 0 1 -13 11 -29 23 -21 14 -32 17 -37 9z"/>
<path d="M10422 2925 c-16 -19 -3 -19 22 0 14 11 16 15 5 15 -8 -1 -20 -7 -27
-15z"/>
<path d="M10230 2920 c-9 -6 -10 -10 -3 -10 6 0 15 5 18 10 8 12 4 12 -15 0z"/>
<path d="M10045 2876 c-39 -19 -65 -35 -60 -35 6 0 21 6 35 14 31 18 53 19 45
3 -4 -7 2 -4 12 8 10 11 25 18 32 16 8 -3 11 0 7 6 -3 6 2 13 11 15 13 3 14 5
3 6 -9 0 -47 -14 -85 -33z"/>
<path d="M10156 2881 c-4 -6 -31 -27 -61 -47 -58 -38 -73 -55 -27 -30 15 8 51
25 80 37 30 13 48 25 40 28 -7 2 -16 8 -19 14 -4 5 -9 5 -13 -2z"/>
<path d="M10207 2844 c-22 -14 -37 -28 -34 -30 8 -9 64 24 70 41 8 18 10 19
-36 -11z"/>
<path d="M9988 2823 c-21 -8 -38 -19 -38 -24 0 -5 2 -9 3 -9 10 0 67 32 72 41
8 11 8 11 -37 -8z"/>
<path d="M10115 2800 c-16 -7 -17 -9 -3 -9 9 -1 20 4 23 9 7 11 7 11 -20 0z"/>
<path d="M9515 2740 c-3 -6 1 -7 9 -4 18 7 21 14 7 14 -6 0 -13 -4 -16 -10z"/>
<path d="M9813 2725 c0 -8 4 -12 9 -9 4 3 8 9 8 15 0 5 -4 9 -8 9 -5 0 -9 -7
-9 -15z"/>
<path d="M9765 2720 c-3 -6 1 -7 9 -4 18 7 21 14 7 14 -6 0 -13 -4 -16 -10z"/>
<path d="M9810 2690 c0 -5 5 -10 10 -10 6 0 10 5 10 10 0 6 -4 10 -10 10 -5 0
-10 -4 -10 -10z"/>
</g>
</svg>
